<svg xmlns="http://www.w3.org/2000/svg" viewBox="0 0 79.84 79.84"><defs><style>.cls-1{fill:#12d8e2;}.cls-2{fill:#324561;}</style></defs><g id="Layer_2" data-name="Layer 2"><g id="Layer_1-2" data-name="Layer 1"><path class="cls-1" d="M0,39.94a39.92,39.92,0,1,1,40.07,39.9A40,40,0,0,1,0,39.94Z"/><path class="cls-2" d="M32.76,61.89c-1.59,0-2.42,0-3.25,0-2.7-.22-4.35.23-2.56,3.42.81,1.45,1.81,3.36-.47,4.18s-2.87-1.5-3.24-2.91c-1-3.93-3.39-5.3-7.31-4.74-1.57.23-3.76.3-3.64-2.12.09-2,2.06-2,3.51-1.78,4,.52,4.55-1.22,3.33-4.5a12.27,12.27,0,0,1-.3-2.46c-1.13-8.27-1.13-8.28-9.4-9-1.53-.14-3.3-.11-3.15-2.21C6.4,38,8,38.05,9.35,37.91c8.36-.82,8.36-.83,9.48-9a15.43,15.43,0,0,1,.49-3.44c1.24-3.13-.16-3.74-2.94-3.61-1.69.08-4.25.58-4.06-2.18.15-2.22,2.51-1.94,4-1.71,3.86.59,5.76-1.16,6.83-4.68.44-1.42,1.08-3.78,3.21-3,2.63.95,1.17,3,.38,4.58-1.32,2.56-.35,3.27,2.14,3.06a14.81,14.81,0,0,1,1.49,0c7.36.05,7.36.05,7.51-7.19,0-.66,0-1.33,0-2,0-1.26.42-2.46,1.84-2.52,1.77-.07,2,1.34,2.11,2.75,0,.33,0,.66,0,1,.43,8.31.43,8.22,8.74,8,2.68-.07,3.82-.52,2.3-3.32-.76-1.4-2-3.33.24-4.25,2.55-1,3.09,1.61,3.51,3.11,1,3.7,3.18,5,6.91,4.46,1.53-.22,3.81-.48,3.92,1.84s-2.15,2.22-3.72,2c-3.61-.37-4.42,1-3.16,4.23A11.67,11.67,0,0,1,61,28.6c.43,2.92,0,6.53,1.57,8.58s5.31.5,8.08.74c1.38.12,2.88.21,2.94,1.94s-1.43,1.9-2.81,2.06c-2.9.35-6.74-1.44-8.46,1-1.52,2.15-1,5.75-1.37,8.72a9.29,9.29,0,0,1-.34,2.45c-1.38,3.3,0,4.11,3.1,3.86,1.57-.12,3.82-.42,3.85,1.94s-2.26,2.2-3.8,2c-4-.62-6.18.9-7.17,4.81-.35,1.39-1,3.71-3.27,2.82s-1.17-2.78-.39-4.22c1.37-2.53.83-3.66-2.15-3.37a11.08,11.08,0,0,1-3,0C43,61,41,62.92,41.9,67.74a5.71,5.71,0,0,1,0,1.49c-.15,1.7.58,4.29-2,4.26s-1.78-2.64-2-4.32a6.27,6.27,0,0,1,0-1.5C38.63,63,37.1,60.62,32.76,61.89Z"/><path class="cls-1" d="M29.89,37.85c-8.41.07-8.41.07-7.15-8.1.39-2.57-.12-6.53,2.08-7.2,3.64-1.11,8.72-1.88,11.56-.13,3.85,2.37.86,7.81,1.47,11.88.19,1.24.78,3.29-1.51,3.51C34.21,38,32,37.85,29.89,37.85Z"/><path class="cls-1" d="M50,37.92c-8,0-8,0-8-8.08,0-7.9,0-7.58,8.24-8,4.76-.25,6.56,1.59,6.72,5.94a19,19,0,0,0,.21,2C58.34,37.92,58.34,37.92,50,37.92Z"/><path class="cls-1" d="M29.92,41.92c8,0,8,0,8,8.14,0,7.84,0,7.43-7.8,8-5.31.38-7.13-1.75-7.21-6.5a8.3,8.3,0,0,0-.1-1C21.54,41.92,21.54,41.92,29.92,41.92Z"/><path class="cls-1" d="M41.93,49.67c0-7.75,0-7.75,8.37-7.75,8.07,0,8.08,0,6.8,8-.43,2.7.24,6.7-2.4,7.54-3.46,1.1-7.52.35-11.32.3-1.33,0-1.43-1.13-1.44-2.15C41.93,53.64,41.93,51.66,41.93,49.67Z"/></g></g></svg>