<?xml version="1.0" encoding="utf-8"?>
<!-- Generator: Adobe Illustrator 26.0.0, SVG Export Plug-In . SVG Version: 6.00 Build 0)  -->
<svg version="1.1" id="Layer_1" xmlns="http://www.w3.org/2000/svg" xmlns:xlink="http://www.w3.org/1999/xlink" x="0px" y="0px"
	 viewBox="0 0 80.8 79.4" style="enable-background:new 0 0 80.8 79.4;" xml:space="preserve">
<style type="text/css">
	.st0{fill:#6BE2A1;}
	.st1{fill:#334561;}
	.st2{fill:#324661;}
	.st3{fill:#F9F9FA;}
	.st4{fill:#FAFAFB;}
	.st5{fill:#F9FAFA;}
	.st6{fill:#F5F6F7;}
	.st7{fill:#6AE1A1;}
</style>
<g id="Layer_2_00000039114676402148045550000008955472565321730464_">
	<g id="Layer_1-2">
		<path class="st0" d="M14.6,28.7c1.6,1.3,3.5,0.8,5.3,0.8c18.4,0,36.9,0.1,55.3-0.1c4.4,0,5.8,1.2,5.7,5.7c-0.3,11,0,21.9-0.1,32.9
			c0,7.5-3.8,11.4-11.3,11.5c-19.1,0.1-38.2,0.1-57.3,0C5.1,79.4,1,75.6,0.9,68.9C0.9,56.1,1,43.3,1.1,30.5
			C5.6,29.9,9.8,27.5,14.6,28.7z"/>
		<path class="st1" d="M14.6,28.7C10,29,5.9,32.5,1.1,30.5c-2.7-11.7-0.7-14.8,10.9-17.6C29.5,8.7,47,4.5,64.6,0.4
			c7.5-1.8,13,2.5,13.9,10.1c0.4,3.4-2.1,3.4-4,3.9c-15.4,3.8-30.9,7.4-46.4,11.1C23.6,26.6,19.1,27.6,14.6,28.7z"/>
		<path class="st2" d="M30.9,53.9c0-3.2-0.1-6.3,0-9.5c0.3-4.4,3.1-6.1,6.8-3.9c5.3,3.1,10.5,6.5,15.5,9.9c3.7,2.6,3.7,5.4,0,7.9
			c-5,3.5-10.2,6.8-15.5,10c-3.4,2-6.2,0.4-6.8-3.5c0-0.3,0-0.7,0-1V53.9z"/>
		<path class="st3" d="M46.5,9.1c6.5-3.1,12.3-3,16.6,3.2C55.2,16.2,53.1,15.8,46.5,9.1z"/>
		<path class="st3" d="M15.6,16.6c6.5-3.4,12.1-2.7,16.7,3.4C26,23.1,20.2,23.3,15.6,16.6z"/>
		<path class="st4" d="M31,13c6.6-3.6,12.2-2.8,16.7,3.1C39.8,19.9,37.9,19.5,31,13z"/>
		<path class="st5" d="M17.7,23.9c-3.9,1-6.6,1.8-9.3,2.3c-1.4,0.3-3.4,1.7-4.3-0.6c-0.8-2.1-0.3-4.4,1.4-5.9
			c1.3-1.2,2.8-2.6,4.8-1.3C12.5,19.9,14.6,21.6,17.7,23.9z"/>
		<path class="st6" d="M61.1,5.4c4.4-1.2,7.8-2.9,11,0.2c1.2,1.2,2.5,3,1.4,4.3c-1.3,1.7-3.6,2-5.3,0.8C66.2,9.1,64.1,7.6,61.1,5.4z
			"/>
		<path class="st7" d="M52,54.4L35.3,65.1V43.6L52,54.4z"/>
	</g>
</g>
</svg>
