<svg xmlns="http://www.w3.org/2000/svg" viewBox="0 0 77.95 67.95"><defs><style>.cls-1{fill:#b9befb;}.cls-2{fill:#324561;}.cls-3{fill:#fefefe;}.cls-4{fill:#334663;}.cls-5{fill:#344763;}.cls-6{fill:#354863;}</style></defs><g id="Layer_2" data-name="Layer 2"><g id="Layer_1-2" data-name="Layer 1"><path class="cls-1" d="M39.94,13.12C40.11.18,40.26,0,53.05,0,58.86,0,64.68,0,70.49.05c5.15.09,7.37,2.19,7.39,7.26.07,18.61,0,37.22.07,55.83C78,66.44,77,68,73.42,68Q39,67.82,4.63,68C1.15,68-.06,66.64,0,63.24c.15-8,.08-16,0-23.93,0-4.07,1.73-6.63,5.84-7.37,2.62,3.16,3.83-1,5.84-1.13,8.73-.29,17.47-1.35,26.13.65,2,2,1.55,4.61,1.6,7.06.16,6.88-.17,13.78.6,20.65C40.35,43.82,40.91,28.47,39.94,13.12Z"/><path class="cls-2" d="M10.19,31.93c-.36,1.49.22,3.78-2.15,3.78s-1.8-2.29-2.16-3.77C5.94,27.49,6,23,6,18.6c0-3.19,1.46-6.14,4.46-6.23,9.81-.27,19.69-1.55,29.45.75A11.13,11.13,0,0,1,42,19.58C41.93,32.84,42,46.1,42,59.35c0,1.7.59,4.27-2,4.22S38,60.94,38,59.26c-.11-9.11-.13-18.22-.19-27.33-2-2.82-1.3-6.07-1.28-9.14,0-3.79-1.55-5.41-5.34-5.32-5,.12-9.92.05-14.88,0C13,17.48,11.6,19,11.5,22.29S12.3,29,10.19,31.93Z"/><path class="cls-3" d="M10.19,31.93c0-4.14,0-8.29-.18-12.43-.08-2.56,1-3.56,3.55-3.53q10.44.12,20.89,0c2.54,0,3.63,1,3.55,3.53-.13,4.14-.12,8.29-.18,12.43Z"/><path class="cls-4" d="M48,13c-.35-3.09.19-5.39,4.09-5,1.47.15,3.27-.19,3.63,1.74.31,1.71-1.12,2.15-2.54,2.32-1.1.14-1.13,1-1.19,1.82-.12,1.74.3,4.32-2.44,3.79C47.24,17.21,48.15,14.67,48,13Z"/><path class="cls-4" d="M65.93,8c1.49,0,3.28-.23,3.73,1.61.41,1.68-1,2.13-2.41,2.44-2.26.48-1,2.43-1.34,3.69-.29,1.05-.7,2-1.83,2-1.43.09-1.85-1-2.12-2.22C60.86,10.48,62.13,8,65.93,8Z"/><path class="cls-4" d="M48,26.24c-.66-3.57,1.4-4.62,4.9-4.27,1.23.11,2.47.26,2.83,1.53a1.82,1.82,0,0,1-1.84,2.38c-2,.11-1.89,1.39-1.9,2.75,0,1.56-.16,3.32-2.23,3.07S48,29.6,48,28.13C48,27.63,48,27.13,48,26.24Z"/><path class="cls-4" d="M62,27c-.58-3.7.82-5.42,4.63-5,1.35.16,2.83.11,3.11,1.78.23,1.41-.81,2.1-2.1,2.2s-1.62.8-1.66,1.94c-.05,1.59.34,3.95-2,3.79C61,31.45,62.28,28.65,62,27Z"/><path class="cls-4" d="M48,41c-.27-3,0-5.46,4-5.08,1.47.14,3.27-.21,3.71,1.65.39,1.68-1,2.24-2.44,2.39-1.07.12-1.21.87-1.28,1.74-.14,1.72.4,4.32-2.35,3.9C47.24,45.25,48.16,42.7,48,41Z"/><path class="cls-4" d="M61.93,40.72c0-4.37,1.79-5.76,5.8-4.72,1,.27,1.87.71,2,1.85a1.82,1.82,0,0,1-1.31,1.88c-1,.4-2.41,0-2.47,1.77s.57,4-2.15,4.2C62.39,45.83,61.9,44.35,61.93,40.72Z"/><path class="cls-4" d="M48,54.88c0-4.55,1.78-5.94,5.79-4.9,1,.27,1.87.71,2,1.85a1.81,1.81,0,0,1-1.32,1.87c-1,.41-2.4,0-2.47,1.78s.52,4.36-2.13,4.11C47,59.32,48.31,56.47,48,54.88Z"/><path class="cls-4" d="M62,54.8c-.64-3.83,1-5.3,4.72-4.88,1.19.13,2.49.09,2.91,1.4.56,1.73-.62,2.4-2.09,2.58A1.51,1.51,0,0,0,66,55.43c-.2,1.66.58,4.36-2.11,4.16C61,59.37,62.28,56.51,62,54.8Z"/><path class="cls-5" d="M10.08,43.22c0-.51-.42-2.29,1.38-2.94a7.53,7.53,0,0,1,5.35.07c.76.3,1.46,1.76.94,1.94-2.84,1-3.22,4.6-6,5.38-.94.28-1.61-.94-1.71-2C10,45.15,10.08,44.65,10.08,43.22Z"/><path class="cls-5" d="M24,43.88c0-1.48-.22-3.25,1.68-3.7,1.73-.41,3.7-.76,5.29.34s1.07,2.24-.34,3.14c-.87.56-2.49-.12-2.62,1.67-.11,1.48-.8,2.8-2.46,2.34C23.74,47.17,24,45.37,24,43.88Z"/><path class="cls-5" d="M10.08,55.14c0-.45-.42-2.22,1.38-2.88a7.5,7.5,0,0,1,5.34.07c.77.29,1.47,1.75.95,1.93-2.83,1-3.22,4.59-5.95,5.38-1,.28-1.62-.93-1.71-2C10,57.13,10.08,56.63,10.08,55.14Z"/><path class="cls-5" d="M24,56c.07-1.46-.31-3.24,1.55-3.79a7.17,7.17,0,0,1,5.33.2c1,.5,1.5,2,.57,2.44-2.07,1-3.69,2.23-4.45,4.5-.08.24-1.27.38-1.75.15C23.77,58.79,24.05,57.31,24,56Z"/><path class="cls-6" d="M14,22.54a2,2,0,0,1,1.66-2.36,7.57,7.57,0,0,1,5.3.3c.76.42,1.27,1.87.73,2-3,.71-3.19,4.56-5.89,5.26-1.23.31-1.78-1.16-1.8-2.43C14,24.82,14,24.32,14,22.54Z"/><path class="cls-6" d="M26,24.5c.12-1.71-.41-3.48,1.35-4.18a8.37,8.37,0,0,1,5.35,0c.78.22,1.64,1.43,1.13,1.87a57.64,57.64,0,0,0-5.63,5.64c-.45.51-1.58-.37-1.88-1.13A8.42,8.42,0,0,1,26,24.5Z"/></g></g></svg>