<svg xmlns="http://www.w3.org/2000/svg" viewBox="0 0 79.95 69.96"><defs><style>.cls-1{fill:#fba56c;}.cls-2{fill:#344662;}.cls-3{fill:#324561;}.cls-4{fill:#fdfdfd;}</style></defs><g id="Layer_2" data-name="Layer 2"><g id="Layer_1-2" data-name="Layer 1"><path class="cls-1" d="M54.11,10c5,0,10-.06,15,0,6.68.13,10.72,3.92,10.79,10.45q.18,19.45,0,38.92C79.8,66,75.78,69.87,69.14,69.9Q40,70,10.79,69.9C4,69.86.11,65.85.06,58.88q-.12-19,0-37.92C.11,14,4,10.15,10.87,10c5-.1,10,0,15,0,2.47,3.09,3.67-.64,5.5-1a77.2,77.2,0,0,1,17.19,0C50.39,9.19,51.56,13.12,54.11,10Z"/><path class="cls-2" d="M30.15,10c-.35,1.49.19,3.75-2.16,3.75S26.18,11.46,25.83,10c.68-7.81,3-10,10.93-10h6.42c7.89,0,10.25,2.18,10.93,10-.35,1.49.19,3.75-2.16,3.75S50.14,11.47,49.79,10A12,12,0,0,0,30.15,10Z"/><path class="cls-3" d="M40.2,42c9.15,0,18.3-.08,27.44.06,2.08,0,5.79-1.27,5.79,1.81,0,3.67-3.88,1.93-6,2-5.15.27-10.32.22-15.46,0-2.85-.11-4.5.41-4,3.74S46.87,54.18,43.64,54c-3-.18-6,0-9-.08-1.27,0-2.39-.48-2.42-1.92S33.33,50,34.6,50c2.16,0,4.32,0,6.48-.06,1.27,0,2.75.32,2.86-1.77C44.07,45.82,42.54,46,41,46H12.56c-1.16,0-2.32,0-3.49,0-1.4,0-2.86-.31-2.77-2.08S7.89,42,9.27,42H40.2Z"/><path class="cls-4" d="M30.15,10c-.65-4.35,1.39-6.13,5.6-6,2.81.09,5.63.1,8.44,0,4.23-.15,6.24,1.65,5.6,6Z"/></g></g></svg>