<svg xmlns="http://www.w3.org/2000/svg" viewBox="0 0 95.9 77.81"><defs><style>.cls-1{fill:#b9befb;}.cls-2{fill:#d3d6fc;}.cls-3{fill:#324561;}</style></defs><g id="Layer_2" data-name="Layer 2"><g id="Layer_1-2" data-name="Layer 1"><path class="cls-1" d="M83.85,44.09c6.49.94,10.11,5,12.05,11v5c-1.53,1.87-1.56,4.22-2,6.41C92,76.31,84,80.4,74.89,76.09c.94-9.89,4.88-19.09,6.57-28.82C81.69,46,81.74,44.16,83.85,44.09Z"/><path class="cls-1" d="M.91,54C2,47.68,6.53,45.35,12,44.09c1.87,0,2,1.51,2.28,2.7,2.05,9.2,4.51,18.28,6.92,27.38A2.68,2.68,0,0,1,21,76.09c-9.12,4.34-17.13.25-19-9.67-.35-1.9-.46-3.9-2-5.37v-1C1.27,58.17-.17,55.88.91,54Z"/><path class="cls-2" d="M.91,54c-.19,2,.91,4.29-.91,6.09v-6C.3,54,.6,54,.91,54Z"/><path class="cls-1" d="M79.65,32.18c-7.37,2.38-10.17,1.31-13.48-5.58-3.72-7.76-10.42-10.33-18.31-10.39S33.35,19,29.66,26.71c-3.4,7.09-5.93,8-13.42,5.48-2-5.73,1-10.42,3.83-14.63C27.58,6.3,38.66,1.71,51.91,3.21c14,1.59,23.54,9.27,27.8,22.92C80.31,28.05,81.52,30.19,79.65,32.18Z"/><path class="cls-3" d="M79.65,32.18C78.11,15.63,65.66,4.3,47.94,4.3s-30.2,11.47-31.7,27.89C15,43,19.31,52.91,21.39,63.17c.59,2.89,1.62,5.69,2.32,8.56.56,2.29.64,4.45-2.73,4.36-4-9.39-5.46-19.48-8-29.28-.24-.92-.63-1.81-1-2.72.07-6.11-.68-12.21.9-18.3C17.42,8.54,33.53-1.77,53.18.25A34.07,34.07,0,0,1,83.92,33.14c.12,3.64,0,7.3-.07,11q-3.48,13.52-6.93,27.05a11.91,11.91,0,0,1-2,5c-3.82-.06-3.13-2.48-2.53-4.84,2.45-9.55,5.07-19,6.94-28.74A33.83,33.83,0,0,0,79.65,32.18Z"/></g></g></svg>