<svg xmlns="http://www.w3.org/2000/svg" viewBox="0 0 83.72 83.87"><defs><style>.cls-1{fill:#fb9b9b;}.cls-2{fill:#354863;}.cls-3{fill:#324561;}.cls-4{fill:#334661;}.cls-5{fill:#344662;}.cls-6{fill:#fcfcfc;}</style></defs><g id="Layer_2" data-name="Layer 2"><g id="Layer_1-2" data-name="Layer 1"><path class="cls-1" d="M42.71,65.89c-9.25-2.27-15.6,1.48-20.11,9.43a37.32,37.32,0,0,1-4.37,5.42c-1.75,2.06-3.56,4.44-6.61,2.28s-1.72-4.59-.24-7q8.25-13.35,16.46-26.71c5.21-8.48,10.32-17,15.64-25.44,1.32-2.08,1.06-3.29-.37-5.21-3.78-5.1-8.12-7.37-14.35-4.52A28.44,28.44,0,0,1,23,15.75c-2.5.55-4.34-.46-5-2.88a3.6,3.6,0,0,1,2.7-4.66C26,6.68,31.27,5.4,36.57,4.09a5.08,5.08,0,0,1,4.18,1.15C46.51,9.17,52.45,12.84,58,17c5,3.7,6.79,9.75,9.58,15,1.87,3.49,3.18,4.16,5.72.84A24.43,24.43,0,0,1,77.25,29c1.83-1.52,3.72-1.3,5.31.42,1.44,1.55,1.59,3.41.14,4.94-3.43,3.62-6.93,7.17-10.57,10.57-2,1.84-4,1.13-5.66-.72-2.09-2.36-4.18-4.73-6.15-7.19-1.64-2.06-2.83-1.93-3.82.49a1.41,1.41,0,0,1-.26.42c-6.11,6.65-6.63,13-.31,20.22,3.84,4.39,1.71,7.66-4.24,7.77C48.7,65.93,45.7,65.89,42.71,65.89Z"/><path class="cls-2" d="M69.69,19.93a10.06,10.06,0,0,1-9.94-9.73,10,10,0,1,1,19.92,0A10.08,10.08,0,0,1,69.69,19.93Z"/><path class="cls-3" d="M14.79,26H26.72c1.41,0,2.84.26,2.84,2s-1.44,2-2.85,2q-11.92,0-23.87,0c-1.4,0-2.84-.26-2.83-2s1.44-2,2.84-2Z"/><path class="cls-4" d="M10.65,41.92H2.71c-1.44,0-2.78-.38-2.71-2.12C.06,38.4,1.2,38,2.48,38q8.19,0,16.39,0c1.43,0,2.82.39,2.7,2.11s-1.58,1.87-3,1.87Z"/><path class="cls-5" d="M6.9,54.09C4.62,53.09.34,55.61.26,52s4.19-1.93,6.45-1.94,6.55-1.77,6.62,1.78C13.42,55.67,9.08,53.05,6.9,54.09Z"/><path class="cls-6" d="M70.37,4c3.49.89,5.7,3,5.17,6.73s-3,5.63-6.71,5.08a5.45,5.45,0,0,1-5-6.33C64.2,5.76,66.66,4,70.37,4Z"/></g></g></svg>