<svg xmlns="http://www.w3.org/2000/svg" viewBox="0 0 79.66 76.59"><defs><style>.cls-1{fill:#12d8e2;}.cls-2{fill:#354964;}.cls-3{fill:#324661;}</style></defs><g id="Layer_2" data-name="Layer 2"><g id="Layer_1-2" data-name="Layer 1"><path class="cls-1" d="M39,31.66Q52.81,18,66.58,4.31c5.87-5.84,5.86-5.85,11.53.63-.63,2-2.32,3.16-3.69,4.55q-14.49,14.55-29,29c-1.76,1.76-3.73,3.4-2.9,6.33-2.77,2.94-5.39,1.86-7.73-.48-11-11-22.09-22-33-33.09-4.86-5,1.66-6,3.34-8.65,2.38.7,3.68,2.74,5.31,4.35,7.65,7.57,15.2,15.24,22.88,22.78C34.81,31.26,36.21,33.86,39,31.66Z"/><path class="cls-1" d="M39,61.61Q52.81,47.93,66.58,34.26c5.87-5.84,5.86-5.85,11.53.63-.63,2-2.32,3.16-3.69,4.55q-14.49,14.55-29,29c-1.76,1.76-3.73,3.39-2.9,6.33-2.77,2.93-5.39,1.85-7.73-.48-11-11-22.09-22-33-33.09-4.86-5,1.66-6,3.34-8.65,2.38.7,3.68,2.74,5.31,4.35,7.65,7.57,15.2,15.24,22.88,22.78C34.81,61.21,36.21,63.81,39,61.61Z"/><path class="cls-2" d="M42.49,44.86c-1.75-.78-3.11-2-1.34-3.73,12.35-12,23.79-25,37-36.19,2.12,1.33,1.92,2.83.31,4.42Z"/><path class="cls-2" d="M42.49,74.81c-1.75-.78-3.11-2-1.34-3.73,12.35-12,23.79-25,37-36.2,2.12,1.34,1.92,2.83.31,4.42Z"/><path class="cls-3" d="M39,31.66c-.23,2.65-1.48,4.13-3.71,1.86C25.24,23.24,14.4,13.7,5.11,2.64c2.23-3.42,3.84-.9,5.4.65Q24.81,17.43,39,31.66Z"/><path class="cls-3" d="M39,61.61c-.23,2.65-1.48,4.13-3.71,1.86C25.24,53.19,14.4,43.65,5.11,32.59c2.23-3.42,3.84-.9,5.4.65Q24.81,47.39,39,61.61Z"/></g></g></svg>