<svg xmlns="http://www.w3.org/2000/svg" viewBox="0 0 80.16 77.59"><defs><style>.cls-1{fill:none;stroke:#8a8a8a;stroke-miterlimit:10;}.cls-2{fill:#8a8a8a;}</style></defs><g id="Layer_2" data-name="Layer 2"><g id="Layer_1-2" data-name="Layer 1"><path class="cls-1" d="M39.54,32.16Q53.31,18.48,67.08,4.81C73-1,72.94-1,78.61,5.44,78,7.44,76.29,8.6,74.92,10q-14.49,14.55-29,29c-1.76,1.76-3.73,3.4-2.9,6.33-2.77,2.94-5.39,1.86-7.73-.48-11-11-22.09-22-33-33.09-4.86-5,1.66-6,3.34-8.65,2.38.7,3.68,2.74,5.31,4.35,7.65,7.57,15.2,15.24,22.88,22.78C35.31,31.76,36.71,34.36,39.54,32.16Z"/><path class="cls-1" d="M39.54,62.11Q53.31,48.43,67.08,34.76c5.87-5.84,5.86-5.85,11.53.63-.63,2-2.32,3.16-3.69,4.55q-14.49,14.55-29,29c-1.76,1.76-3.73,3.39-2.9,6.33-2.77,2.93-5.39,1.85-7.73-.48-11-11-22.09-22-33-33.09-4.86-5,1.66-6,3.34-8.65,2.38.7,3.68,2.74,5.31,4.35C18.57,45,26.12,52.68,33.8,60.22,35.31,61.71,36.71,64.31,39.54,62.11Z"/><path class="cls-2" d="M43,45.36c-1.75-.78-3.11-2-1.34-3.73,12.35-12,23.79-25,37-36.19,2.12,1.33,1.92,2.83.31,4.42Z"/><path class="cls-2" d="M43,75.31c-1.75-.78-3.11-2-1.34-3.73,12.35-12,23.79-25,37-36.2,2.12,1.34,1.92,2.83.31,4.42Z"/><path class="cls-2" d="M39.54,32.16c-.23,2.65-1.48,4.13-3.71,1.86C25.74,23.74,14.9,14.2,5.61,3.14c2.23-3.42,3.84-.9,5.4.65Q25.31,17.93,39.54,32.16Z"/><path class="cls-2" d="M39.54,62.11c-.23,2.65-1.48,4.13-3.71,1.86C25.74,53.69,14.9,44.15,5.61,33.09c2.23-3.42,3.84-.9,5.4.65Q25.31,47.89,39.54,62.11Z"/></g></g></svg>