<?xml version="1.0" encoding="UTF-8"?>
<svg id="Layer_2" data-name="Layer 2" xmlns="http://www.w3.org/2000/svg" viewBox="0 0 806.53 963.54">
  <defs>
    <style>
      .cls-1 {
        fill: #ebe2d5;
      }

      .cls-1, .cls-2, .cls-3, .cls-4, .cls-5, .cls-6, .cls-7, .cls-8, .cls-9, .cls-10, .cls-11, .cls-12, .cls-13, .cls-14, .cls-15, .cls-16, .cls-17, .cls-18, .cls-19, .cls-20, .cls-21, .cls-22, .cls-23, .cls-24, .cls-25, .cls-26, .cls-27, .cls-28, .cls-29, .cls-30, .cls-31, .cls-32, .cls-33, .cls-34, .cls-35, .cls-36, .cls-37, .cls-38, .cls-39, .cls-40, .cls-41, .cls-42, .cls-43, .cls-44, .cls-45, .cls-46, .cls-47, .cls-48, .cls-49, .cls-50, .cls-51, .cls-52, .cls-53, .cls-54, .cls-55, .cls-56, .cls-57, .cls-58, .cls-59, .cls-60, .cls-61, .cls-62, .cls-63, .cls-64, .cls-65, .cls-66, .cls-67, .cls-68, .cls-69, .cls-70, .cls-71, .cls-72, .cls-73, .cls-74, .cls-75, .cls-76, .cls-77, .cls-78, .cls-79, .cls-80, .cls-81, .cls-82, .cls-83, .cls-84, .cls-85, .cls-86, .cls-87, .cls-88, .cls-89, .cls-90, .cls-91, .cls-92, .cls-93, .cls-94, .cls-95, .cls-96, .cls-97, .cls-98, .cls-99, .cls-100, .cls-101, .cls-102, .cls-103, .cls-104, .cls-105, .cls-106, .cls-107, .cls-108, .cls-109, .cls-110, .cls-111, .cls-112, .cls-113, .cls-114, .cls-115, .cls-116, .cls-117, .cls-118, .cls-119, .cls-120, .cls-121, .cls-122, .cls-123, .cls-124, .cls-125, .cls-126, .cls-127, .cls-128, .cls-129, .cls-130, .cls-131, .cls-132, .cls-133, .cls-134, .cls-135, .cls-136, .cls-137, .cls-138, .cls-139, .cls-140, .cls-141, .cls-142, .cls-143, .cls-144, .cls-145, .cls-146, .cls-147 {
        stroke-width: 0px;
      }

      .cls-2 {
        fill: #ece2d4;
      }

      .cls-3 {
        fill: #373427;
      }

      .cls-4 {
        fill: #eed2b3;
      }

      .cls-5 {
        fill: #313223;
      }

      .cls-6 {
        fill: #b1aca6;
      }

      .cls-7 {
        fill: #3b3328;
      }

      .cls-8 {
        fill: #4f3519;
      }

      .cls-9 {
        fill: #fce9cd;
      }

      .cls-10 {
        fill: #3f2f27;
      }

      .cls-11 {
        fill: #cfc5b7;
      }

      .cls-12 {
        fill: #432816;
      }

      .cls-13 {
        fill: #beb7b0;
      }

      .cls-14 {
        fill: #45240d;
      }

      .cls-15 {
        fill: #fad194;
      }

      .cls-16 {
        fill: #382d23;
      }

      .cls-17 {
        fill: #aca39a;
      }

      .cls-18 {
        fill: #28212e;
      }

      .cls-19 {
        fill: #bfbbb6;
      }

      .cls-20 {
        fill: #eb642d;
      }

      .cls-21 {
        fill: #b5a592;
      }

      .cls-22 {
        fill: #a19487;
      }

      .cls-23 {
        fill: #a0968d;
      }

      .cls-24 {
        fill: #6e3b1e;
      }

      .cls-25 {
        fill: #3d3325;
      }

      .cls-26 {
        fill: #22272b;
      }

      .cls-27 {
        fill: #f9c595;
      }

      .cls-28 {
        fill: #212e22;
      }

      .cls-29 {
        fill: #272033;
      }

      .cls-30 {
        fill: #aa9889;
      }

      .cls-31 {
        fill: #2a2032;
      }

      .cls-32 {
        fill: #c8c0b7;
      }

      .cls-33 {
        fill: #e4996c;
      }

      .cls-34 {
        fill: #f5c596;
      }

      .cls-35 {
        fill: #9c361d;
      }

      .cls-36 {
        fill: #4c2413;
      }

      .cls-37 {
        fill: #2a2433;
      }

      .cls-38 {
        fill: #fcbb4a;
      }

      .cls-39 {
        fill: #b1b0ac;
      }

      .cls-40 {
        fill: #392d25;
      }

      .cls-41 {
        fill: #1a2e1e;
      }

      .cls-42 {
        fill: #a99f8f;
      }

      .cls-43 {
        fill: #948d7d;
      }

      .cls-44 {
        fill: #27212e;
      }

      .cls-45 {
        fill: #ec632d;
      }

      .cls-46 {
        fill: #aa9e8c;
      }

      .cls-47 {
        fill: #252537;
      }

      .cls-48 {
        fill: #23282b;
      }

      .cls-49 {
        fill: #332b22;
      }

      .cls-50 {
        fill: #e6e5db;
      }

      .cls-51 {
        fill: #463a2d;
      }

      .cls-52 {
        fill: #f2f0ea;
      }

      .cls-53 {
        fill: #e1ab80;
      }

      .cls-54 {
        fill: #e69975;
      }

      .cls-55 {
        fill: #be6138;
      }

      .cls-56 {
        fill: #342e27;
      }

      .cls-57 {
        fill: #fabf94;
      }

      .cls-58 {
        fill: #332d21;
      }

      .cls-59 {
        fill: #c4beb7;
      }

      .cls-60 {
        fill: #9d8f84;
      }

      .cls-61 {
        fill: #3a2e19;
      }

      .cls-62 {
        fill: #232239;
      }

      .cls-63 {
        fill: #c1b8b2;
      }

      .cls-64 {
        fill: #faf9f4;
      }

      .cls-65 {
        fill: #2b1f24;
      }

      .cls-66 {
        fill: #b1a195;
      }

      .cls-67 {
        fill: #b9b4af;
      }

      .cls-68 {
        fill: #302924;
      }

      .cls-69 {
        fill: #e7dcce;
      }

      .cls-70 {
        fill: #2a2b2a;
      }

      .cls-71 {
        fill: #f0b092;
      }

      .cls-72 {
        fill: #a19584;
      }

      .cls-73 {
        fill: #e2d0bd;
      }

      .cls-74 {
        fill: #b09e90;
      }

      .cls-75 {
        fill: #352d23;
      }

      .cls-76 {
        fill: #e59a71;
      }

      .cls-77 {
        fill: #f3642c;
      }

      .cls-78 {
        fill: #9c361b;
      }

      .cls-79 {
        fill: #765b2a;
      }

      .cls-80 {
        fill: #212a1c;
      }

      .cls-81 {
        fill: #e2ab8c;
      }

      .cls-82 {
        fill: #352e23;
      }

      .cls-83 {
        fill: #b0a394;
      }

      .cls-84 {
        fill: #f1ae8c;
      }

      .cls-85 {
        fill: #9e8250;
      }

      .cls-86 {
        fill: #ef8c3b;
      }

      .cls-87 {
        fill: #877c69;
      }

      .cls-88 {
        fill: #3c3023;
      }

      .cls-89 {
        fill: #ef672a;
      }

      .cls-90 {
        fill: #aba69c;
      }

      .cls-91 {
        fill: #24212f;
      }

      .cls-92 {
        fill: #53291b;
      }

      .cls-93 {
        fill: #232237;
      }

      .cls-94 {
        fill: #332f27;
      }

      .cls-95 {
        fill: #b5b3af;
      }

      .cls-96 {
        fill: #c0bcb3;
      }

      .cls-97 {
        fill: #373229;
      }

      .cls-98 {
        fill: #232428;
      }

      .cls-99 {
        fill: #332e27;
      }

      .cls-100 {
        fill: #bbbab2;
      }

      .cls-101 {
        fill: #532713;
      }

      .cls-102 {
        fill: #e29c74;
      }

      .cls-103 {
        fill: #3b2e25;
      }

      .cls-104 {
        fill: #f6c59d;
      }

      .cls-105 {
        fill: #e57a26;
      }

      .cls-106 {
        fill: #9d968e;
      }

      .cls-107 {
        fill: #532009;
      }

      .cls-108 {
        fill: #212b1e;
      }

      .cls-109 {
        fill: #eb8235;
      }

      .cls-110 {
        fill: #2e2d28;
      }

      .cls-111 {
        fill: #192d25;
      }

      .cls-112 {
        fill: #3f2e16;
      }

      .cls-113 {
        fill: #f9c695;
      }

      .cls-114 {
        fill: #e8dfd2;
      }

      .cls-115 {
        fill: #2d2820;
      }

      .cls-116 {
        fill: #212b24;
      }

      .cls-117 {
        fill: #393229;
      }

      .cls-118 {
        fill: #99351d;
      }

      .cls-119 {
        fill: #a59d8f;
      }

      .cls-120 {
        fill: #38201e;
      }

      .cls-121 {
        fill: #24292b;
      }

      .cls-122 {
        fill: #c5ae96;
      }

      .cls-123 {
        fill: #2f2524;
      }

      .cls-124 {
        fill: #de936d;
      }

      .cls-125 {
        fill: #a6a194;
      }

      .cls-126 {
        fill: #a29688;
      }

      .cls-127 {
        fill: #d8ac8e;
      }

      .cls-128 {
        fill: #382a24;
      }

      .cls-129 {
        fill: #98361f;
      }

      .cls-130 {
        fill: #b36345;
      }

      .cls-131 {
        fill: #362f28;
      }

      .cls-132 {
        fill: #ebc9a3;
      }

      .cls-133 {
        fill: #573434;
      }

      .cls-134 {
        fill: #baa896;
      }

      .cls-135 {
        fill: #9e9990;
      }

      .cls-136 {
        fill: #bcb6ac;
      }

      .cls-137 {
        fill: #a69c8d;
      }

      .cls-138 {
        fill: #322821;
      }

      .cls-139 {
        fill: #443420;
      }

      .cls-140 {
        fill: #9b9183;
      }

      .cls-141 {
        fill: #aea090;
      }

      .cls-142 {
        fill: #c4bdb3;
      }

      .cls-143 {
        fill: #9a9386;
      }

      .cls-144 {
        fill: #a4a29d;
      }

      .cls-145 {
        fill: #322f26;
      }

      .cls-146 {
        fill: #df9873;
      }

      .cls-147 {
        fill: #1d281d;
      }
    </style>
  </defs>
  <g id="Layer_2-2" data-name="Layer 2">
    <g id="Layer_1-2" data-name="Layer 1-2">
      <polyline class="cls-53" points="484.96 174.73 491.29 195.23 517.38 173.9 522.14 145.99 522.29 141.23"/>
      <path class="cls-117" d="M456.29,10.23c2.1-.29,10.32.12,15.22-1.78,4.9-1.9,13.11-1.69,15.78-6.22,6.77,1.67,16.16-4.31,20,4,5.26,6.27,9.2,17.06,4,25,3.93,1.28,2.54,2.87,5,4,3.15-2.93,8.22-10.52,3-13-.55,2.84-1.58,5.45-3,8,4.77-10.28-3.28-32.76-18-30s-28.53,4.05-42,10h0Z"/>
      <path class="cls-48" d="M456.29,10.23c-8.27,3.65-13.63,9.23-21.93,13.07-8.29,3.85-19.33,3.77-28.38,5.62-9.04,1.86-12.24,10.69-17.69,16.31-.61.63-.81,2.03-2,2v-8c-.2.68-4.71,3.4-5,4-.42,1.9-.77,4.15-1,6h1c2.52,2.44.39,8.61,1,12,.76,2.4,2.43,5.95,4,8-.56,1.26-2.85,1.25-3,3,1.91,2.95,4.01,5.92,7,8-1.89.06-3.29-1.42-5-2-1.02.14-2.67.97-3,2,.92,1.94.18,1.63,0,3-.17,1.27-.68,2.99,0,5,4.82,2.52,9.52,6.81,17.22,7.78s13.67-6.66,19.86-9.7c6.18-3.05,9.33-12.55,16.92-11.08-1.36-7.34,12.76-3.73,10-13,16.96,2.58-2.33,27.02,9,38,.13.35.68.8,1,1,4.09-1.23,8.49-.93,13,0,6.99,8.95,7.14,19.88,16,27,.04-5.6,1.83-13.37,2.78-19.22s5.83-10.43,10.92-13.08c5.09-2.66,15.57-2.12,17.07,4.53s5.65,10.07,6.98,17.02c1.34,6.95,4.44,11.8,12.25,12.75,1.49.22,2.61.77,4,1,2.29.13,7.31-1.5,10-2-4.22-3.86-3.86-10.38-6.78-17.22-2.92-6.84-7.61-14.77-4.22-21.78-1.33-8.36-2-17.34-2-26-.58-4.81-.71-11.42-1-16-.19-.97-.73-2.06-1-3-1.04-1.85-2.95-3.46-4-1,.73-6.54-3.75-12.49-11-9-2,.41-1.31.78-3,0-2.46-1.13-1.07-2.72-5-4-.5.77-.9,1.92-2,2,2.43-4.33,3.25-10.92,2.67-15.67s-6.59-10.05-4.67-11.33c-3.84-8.31-13.23-2.33-20-4-2.67,4.53-10.88,4.32-15.78,6.22-4.9,1.9-13.12,1.49-15.22,1.78h0Z"/>
      <path class="cls-75" d="M511.29,31.23c5.2-7.94,1.26-18.73-4-25-1.92,1.28,4.09,6.58,4.67,11.33s-.24,11.34-2.67,15.67c1.1-.08,1.5-1.23,2-2Z"/>
      <path class="cls-97" d="M519.29,35.23c7.25-3.49,11.73,2.46,11,9,1.05-2.46,2.96-.85,4,1-1.61-6.06-4.67-13.61-11-16-1.15,1.68-2.11,4.86-4,6Z"/>
      <path class="cls-51" d="M381.29,43.23c.29-.6,4.8-3.32,5-4,0-1.32.49-3.79,0-5-1.54-3.8-4.72,7.71-5,9Z"/>
      <path class="cls-75" d="M386.29,39.23v8c1.19.03,1.39-1.37,2-2,.19-1.08-.95-9.95-2-11,.49,1.21,0,3.68,0,5Z"/>
      <path class="cls-82" d="M536.29,64.23c0-5.31-.02-10.88-1-16,.29,4.58.42,11.19,1,16Z"/>
      <path class="cls-75" d="M381.29,70.23c.35.65,1.61,1.4,2,2,.15-1.75,2.44-1.74,3-3-1.57-2.05-3.24-5.6-4-8-1.15-3.64-.62-7.8-1-12h-1c-.89,7.23,1.81,14.48,1,21Z"/>
      <path class="cls-75" d="M382.29,61.23c-.61-3.39,1.52-9.56-1-12,.38,4.2-.15,8.36,1,12Z"/>
      <path class="cls-75" d="M382.29,83.23c-1.37-3.87-6.78-6.23-6-11,1.94,2.44,3.66,5.86,6,8,.33-1.03,1.98-1.86,3-2-1.87-1.33-3.41-4.41-5-6-10.34-10.34-5.29,9.82-.25,15.25,5.05,5.43,18.91,14.56,27.02,9.52s13.81-9.25,21.23-14.77c7.35-5.46,14.73-13.2,24-15,.36,10.26-7.27,26.28,3,33-11.33-10.98,7.96-35.42-9-38,2.76,9.27-11.36,5.66-10,13-7.59-1.47-10.74,8.03-16.92,11.08-6.19,3.04-12.16,10.67-19.86,9.7-7.7-.97-12.4-5.26-17.22-7.78-.68-2.01-.17-3.73,0-5Z"/>
      <path class="cls-34" d="M428.29,82.23c-5.59,8.18-13.22,12.22-21,17,.29,8.68,1.68,17.34,5,25,6.1-2.94,12.3-8.7,16-5,.5.5,2.4-.4,3,0-.8,4.61-7.97,3.9-10,8-1.61,1.71-3.43,4.97-3,7,.2.94.73,2.02,1,3,.96,3.5,2.84,4.47,6,6,3.97,1.11,13.1,6.63,12-2,4.39,7.98,12.21-3.38,18.75-7.25s13.37-11.06,20.25-14.75c-2.74-9.73-8.34-19.43-20-18-.32-.2-.87-.65-1-1-10.27-6.72-2.64-22.74-3-33-9.27,1.8-16.65,9.54-24,15Z"/>
      <path class="cls-75" d="M380.29,72.23c1.59,1.59,3.13,4.67,5,6,1.71.58,3.11,2.06,5,2-2.99-2.08-5.09-5.05-7-8-.39-.6-1.65-1.35-2-2-.09.71-1.19.57-1,2Z"/>
      <path class="cls-75" d="M376.29,72.23c-.78,4.77,4.63,7.13,6,11,.18-1.37.92-1.06,0-3"/>
      <path class="cls-49" d="M539.29,131.23c2.69.44,10.78,1,12-2-6.08-11.97-10.89-25.75-13-39-3.39,7.01,1.3,14.94,4.22,21.78s2.56,13.36,6.78,17.22c-2.69.5-7.71,2.13-10,2Z"/>
      <path class="cls-88" d="M456.29,101.23c11.66-1.43,17.26,8.27,20,18-6.88,3.69-13.71,10.88-20.25,14.75s-14.36,15.23-18.75,7.25c1.1,8.63-8.03,3.11-12,2-4.18-1.16-8.48-2.09-13-2,1.95-1.6,4.2-3.83,7-4-.27-.98-.8-2.06-1-3-1.29,1.47-8.01,4.89-10,6,3.65-.15,1.78,1.52,3,4,5.61-5.51,12.95,3.23,19.08,3.92,6.13.7,8.66,9.95,10.92,14.08,1.11-.97,2.58-1.05,4-1,.85,3.34-2.61,5.09-4,2-.22.24-2.63.02-3,0-.89.85-1.14,3.99-5,4,4.84,1.02,9.91.95,15,1,.99-7.12-5.76-11.59-7-18,12.85-7.77,23.76-19.88,37-27,1.52,3.83,3.87,8.48,9,7,.48-11.57-1.09-21.13,8.25-29.75,9.34-8.63,20.3-2.4,21.73,8.77,1.43,11.17,5.75,21.81,18.02,20.98-7.81-.95-10.91-5.8-12.25-12.75-1.33-6.95-5.48-10.37-6.98-17.02s-11.98-7.19-17.07-4.53c-5.09,2.65-9.97,7.23-10.92,13.08s-2.74,13.62-2.78,19.22c-8.86-7.12-9.01-18.05-16-27-4.51-.93-8.91-1.23-13,0h0Z"/>
      <path class="cls-113" d="M556.85,135.3s-5.18-5.11-5.56-6.07c-1.22,3-9.31,2.44-12,2-1.39-.23-2.51-.78-4-1-12.27.83-16.59-9.81-18.02-20.98-1.43-11.17-12.39-17.4-21.73-8.77-9.34,8.62-7.77,18.18-8.25,29.75-5.13,1.48-7.48-3.17-9-7-13.24,7.12-24.15,19.23-37,27,1.24,6.41,7.99,10.88,7,18-5.09-.05-10.16.02-15-1h0c-3.56-.75-6.7-2.44-10-4-2.75,3.09.92,7.11-1,10,8.13.71,16.64-3.49,20.75,4.25,4.11,7.73,10.91,10.58,13.47,17.53,2.57,6.95,9.59,15.48,16.7,12.14,7.12-3.33,12.74-6.47,18.08-11.92,7.62-7.77,11.15-14.22,20.75-21.25,9.6-7.03,9.98-21.99,10.25-32.75,2.5,7.91.38,17.63,0,26,7.58-6.75,22.75-20.25,22.75-20.25l11.81-11.68Z"/>
      <path class="cls-139" d="M421.29,127.23c2.03-4.1,9.2-3.39,10-8-.6-.4-2.5.5-3,0-5.38,3.29-16.17,3.91-16,12,3.23-.14,6.51-2.32,9-4Z"/>
      <path class="cls-73" d="M425.29,143.23c-3.16-1.53-5.04-2.5-6-6-2.8.17-5.05,2.4-7,4,4.52-.09,8.82.84,13,2Z"/>
      <path class="cls-110" d="M423.29,163.23c3.3,1.56,6.44,3.25,10,4,3.86,0,4.11-3.15,5-4-9.34-.48-23.64-12.17-27-19-1.22-2.48.65-4.15-3-4-8.31,4.63-11.88,6.53-3.25,12.25,8.63,5.71,9.73,6.72,18.25,10.75Z"/>
      <path class="cls-53" d="M491.29,195.23c7.25.55,5.27,9.68,3,13,1.17-1.25,2.83-2.83,4-4,3.25-7.02,5.25-14.17,10.75-20.25,5.49-6.09,8.8-10.64,13.25-16.75.38-8.37,2.5-18.09,0-26-.27,10.76-.65,25.72-10.25,32.75s-13.13,13.48-20.75,21.25h0Z"/>
      <path class="cls-132" d="M411.29,144.23c3.36,6.83,17.66,18.52,27,19,.37.02,2.78.24,3,0,.25-.27,0-1,0-1-2.26-4.13-4.79-13.38-10.92-14.08-6.13-.69-13.47-9.43-19.08-3.92Z"/>
      <path class="cls-98" d="M441.29,162.23s.25.73,0,1c1.39,3.09,4.85,1.34,4-2-1.42-.05-2.89.03-4,1Z"/>
      <path class="cls-77" d="M520.29,189.23c-10.14,4.48-19.27,13.27-27,21-9.91,16.28-18.7,25.67-17,46,.08.97-.17,2.04,0,3,6.3-10.34,16.58-19.54,25.25-29.75s25.19-19.16,38.42-13.92c13.24,5.24,21.89,13.79,29.25,25.75,7.37,11.95,13.37,27.33,13.08,41.92-.29,14.6-1.83,31.63-11.75,43.25-9.93,11.61-11.36,26.03-14.25,40.75,3.06-4.88,11.08.23,19.07.93,8,.69,2.38,7.48-4.09,9.05-6.48,1.56-14.09,2.7-17.98,7.02-.36,1.32-1.55,3.35-2,5,1.49-1.42,9.64,6.87,14.08,8.92,4.43,2.06,9.33,7.31,14.67,11.33,5.35,4.02.14,11.67-6.45,13.05-6.58,1.39-11.68,6.68-18.37,7.63-6.69.94-13.13,6.55-19.93,6.07-1.45,3.7-3.49,7.2-6,10-.37.73-.72,1.23-1,2,.75.71,6.55.45,8.25,3.75,1.7,3.31,6.54,1.54,9,5,2.45,3.47,17.82,6.18,14.42,12.92-3.4,6.75-13.57,6.64-20.67,7.33s-16.45-3.37-23-6c-.53-1.28.97-1.86,1-3-4.17,5.33-16.04,16.46-15,23,11.14,2.22,17.86,12.11,29.08,15.92,11.21,3.81,19.78,12.15,32.94,13.06,13.17.9,29.79,1.49,43.98,1.02s31.02,1.11,45-1c-1.65,7.01-4.99,13.56-5,21,3.15,8.48,4.94,17.14,7,26,1.54,6.63,1.27,15.44,0,22-1.85,23.26-22.09,51.7-46,57-11.68,6.1-35.5,11.5-49,6-1.01-.12-1.48-.89-2-1-3.72-.14-7.38-.26-11-1-40.83-8.31-81.65-18.54-122-29-1.3-.34-2.65-.65-4-1-4.83,2.14,3.15,12.24,7.31,12.7,4.15.45,10.3,5.69,14.61,7.38,4.32,1.68,10.85,5.34,15.08,6.92,3.26,1.22,6.97,2.81,10,4,23.77,9.33,48.29,13.79,74,17s57.49,6.39,82-3c3.12-1.19,6.99-1.65,10-3,19.83-8.86,23.35-35.45,31.08-53.92,7.72-18.48,13.38-43.6,20.14-63.86s13.75-43.91,20-65c6.26-21.09,16.25-43.77,17.78-66.22.67-9.85.87-26.75-11.22-28.78-12.09-2.02-17.57,8.55-26.78,12.78,2-9.99,5.12-20.33,7-30,0-18.05-8.71-30.18-10-47s.16-36.68-5.08-51.92c-5.23-15.25-14.74-19.4-24.92-31.08-4.69-.34-10.75,7.28-17.01,5.99-6.25-1.28-13.7-1.76-19.22-4.76-5.52-3-9.08-5.72-14.02-8.98s-7.87-7.99-12.5-11.5c-4.64-3.51-7.43-9.52-11.25-12.75-8.9-3.08-18.38-7.54-27.77-10.23s-20.17-8.91-30.23-5.77M609.29,445.23c-1.88,9.98,9.63,11.93,16,16-1.83,6.52-11.74,3.39-17,4s-10.63-4.91-14.25-7.75c-3.61-2.85-11.16-7.99-4.72-10.22,6.44-2.24,12.96-2.13,19.97-2.03Z"/>
      <path class="cls-109" d="M498.29,204.23c-1.17,1.17-2.83,2.75-4,4-.37.55-.63,1.39-1,2,7.73-7.73,16.86-16.52,27-21-7.93,2.47-15.98,8.98-22,15h0Z"/>
      <path class="cls-52" d="M235.29,347.23c.84.76,2.03,1.48,3,2,.65-2.31,3.05-3.97,3-7-7.69,1.62-6.5-7.15-8-11,2.55-.21,2.84-1.36,5-3-3.93.07-1.06-4.17-6-2,4.14,2.33-1.67,4.18-4,6,1.33-3.27-3.62-2.87-3-6,4.64,4.1,2.2-2.85-2-1,2.21-4.44-1.97-.85-3-4,4.37.25,2.81-5.12-1-4-.3-2.23,3.64-5.59,5-4,1.39-.53,1.93-3.18,4-1,.79-1.72-2.29-4.32,1-4-1.25-.97-3.04-.62-4-2,2.47-.29,3.66-1.34,5-4,2.28,1.05,2.92,1.88,6,1-1.73-4.26,2.32-4.9,6-7-3.72,3.44-.33,4.12-4,7,2.39.1,3.13,2.85,5,4-.69-2.5,2.89-5.53,5-4,2.12-4-2.06-3.01-4-1,.03-2.68,3.66-5.67,6-4-2.41-4.15-1.57-6.87,3-8,1.84,5.01,4.07,5.74,7,10-2.2,1.72-4.1,4.1-5,0-1.75,1.3-5.44.74-5,4,2.39-.33,2.62-1.26,5-2-2.84,3.77,2.11,2.19,4,1-.48,1.75-1.14,3.95,1,5-.19-.26,1.07-2.74-1-3,3.35-2.01,3.52-.67,7,0-.87,2.67-4.38-.02-4,3,3.21.28,2.76,4.45,8,1-1.98,2.01,2.58,2.56,0,5,3.55-1.86,4.74.29,2,3,3.71-1.6,5.53-.07,3,3,3.06-2,6.09.8,5,4,4.7-2.98,7.23,10.89,12,6,1.35-.6,4.91-1.95,5-2,3.63-1.95,6.16-5.54,9-9-5.79,2.42-10.6,8.39-17,10-4.83-5.16,4.06-7.16,2-12,1.99,4.37,8.94.8,10-3-3.1,1.5-4.11,3.04-8,3,.52-2.26,5.41-4.11,0-3,1.06-2.05.43-4.18-2-5,.75,2.09.95,3.5-2,3-.46.39-.12,1.38-1,2,.14.82,3.43.19,2,3-4.82.18-3.84,4.58,0,1-.14,2.33-2.61,4.94-5,5-.75-2.43-1.43-3.93-2-6-1.59.84-.87.46-2,0-2.99-1.21-2.56-2.81-5-5,2.79-.06,4.51,2.25,6,4,.35-.72.01-2.37,0-3-.06-2.47,1.98-1.8-3-1,1.92-3.14,1.08-8.09,7-8-2.36-5.66-5.81,4.6-11,1-.18,1.23.94,3.64-2,4-2.16-1.89,2.15-3.03,0-5-3.18,2.19-3.32-1.8-6-2-3.35-3.05-4.73-8.5-10-8,1.58-4.62,4.07-7.11-2-4,3.46-7.81,12.61-7.5,15-12,1.77,2.52,2.67,4.01,6,1,1.5,2.48,3.88,3.52,5,6-3.73-2.44-5.28,4.59-9,2,.62,6.59,5.99-3.01,5,3,1.78-1.22,2.54-3.83,5-4,2.88,1.97-3.5,2.49-1,4,4.61-1.91,5.72,1.47,9,4-3.24,1.05-4.78,1.55-8,3,3.61,1.13,5.45,6.14,9,8,.25-4.05-.04-5.89,0-10,4.66,2.81,4.3,10.05,9,8-1.05,3.31,1.51,5.03,5,5-1.68,3.18,2.37,3.07,3,6-2.49-1.49-3.89.33-4,3,2.86-2.48,3.92,2.2,5,4,1.09-4.09,7.22-1.33,9,4,.39.85.5,1.12,1,2,1.28-1.49-.01-2.37,0-4,2.82.09,5.06-1.67,8-1-4.41-9.44-15.29-18-22.75-26.25-7.45-8.26-17.16-16.15-24-25-6.85-8.85-17.07-17.71-17.25-25.75-5.86.46-7.94-8.28-12.08-12.92-4.14-4.63-6.07-11.24-10.17-15.83s-7.28-10.2-10.75-15.25c-31.65,16.6-62.21,35.75-94,52,8.74,11.43,19.69,23.57,30.75,34.25s18.79,25.04,33.17,30.83c14.39,5.78,26.07,16.05,35.08,28.92M224.29,219.23c-8.42,4-13.21,11.41-23,12,5.17-5.87,15.91-11.73,23-12M231.29,219.23c-2.22,3.48,1.96,2.01,2,5-3.62,1.83-13.15,8.8-12,3-4.08-1.45-11.21,8.15-4,4-3.88,4.29-14.07,13.07-19,8,2.31,4-.82,1.47-3,1,2.18,2.4,1.77,5.18-2,6-1.85-10.07,9.83-10.33,16.03-14.97,6.19-4.65,13.56-9.11,21.97-12.03M201.29,233.23c-6.11,1.98-11.03,6.4-17.7,9.3-6.66,2.91-15.57,13.23-20.3,7.7,5.1.95,7.39-6.94,13-4-.98-4.59,7.65-7.22,12.07-8.93,4.43-1.7,8.59-8.39,12.93-4.07M235.29,233.23c-1.33,1.34-4.43,1.47-5,4,2.01,1.98,2.56-2.58,5,0-.32,2.98,1.26,4.78-3,6,3.52-.39-.48,4.38,4,3-2.61-5.81,6.94-3.91,6-9,1.93,3.7,10.95,9.31,2,10,1.1,2.53,4.45-1.49,5,2-2.23,1.51-4.38-.68-5,3-3.22-1.73-3.26-4.01-8-1,2.69-4.38-.44-5.15-3-1-2.76-3.17-4.08-3.42-1-6-3.83-3-2.5,1.77-6,1,1.59,2.97,3.61,3.26,0,6,2.52.58,3.78,2.65,6,0,1.2,2.42,2.74,3.87,4,6,3.88-.86-1.92-4.06,2-4,1.27,3.93,3.74-.1,6,0,.97,4.6-5.81,3.45-7,7,3.67-1.02,7-2.42,10-4-.66,5.4,8.14.28,9-1-.04,2.55,4.72,2.94,1,5,3.33-.65,4.35.65,2,3,3.27-1.57,4.5-.34,3,3,2.77-.92,3.9,2.19,6,3-4.75.81-8.34,5.56-13,7-1.54-1.96,2.5-5.25-2-3,4.41-3.94-1.53-3.76,3-8-4.54-2.9-5.18-5.9-11-3,.84,3.74,6.26,5.03,7,9-3.44,2.32-6.02-2.88-9,1-3.6-3.94-1.61-2.56,0-5-3.05-2.37-5.43,1.43-8,2,2.5-3.49-1.14-2.05-3-3,4.06-1.64-.06-2.26,4-4-5.34.4-9.16-4.65-13-9,3.27-1.33,2.87,3.62,6,3-1.75-4.58-11.77-10.19-11-5-5.11-1.5-2.05-3.95-5-8,3.84.13,5.06-3.79,9-3-.11,1.95,2.12,4.77,4,3-7.51-6.04,2.53-8.37,5-1-.25-2.36-1.69-5-4-6,1.82-2.07,4.9-5.05,8-3M190.29,243.23c-3.44,1.36-7.44,5.81-11,5-1.38,4.92,3.71.11,5,3-5.86,3.24-18.16,15.16-22,6,9.22-4.15,18.47-12.57,28-14M163.29,253.23c-2.83,6.17-7.58-3.33,0,0M203.29,255.23c6.13,7.73,16.33,15.73,23,21-1.65,1.85-4.15,5.23,0,3-3.22,3.78,1.34,3.28,0,8,2.95-.8,3.3,2.6,6,3-1.45,4.56-8.57,4.81-11,9-2.16-1.47-3.27-3.5-6-2,3.97-3.14.34-3.63-3-5,3.08-2.96,3.22-3.53,3-7-3.65.28-6.96,2.08-10,4-2.88-1.97,3.5-2.49,1-4-2.54,2.08-6.41-1.99-6-5-.84,2.51-3.77,1.32-2-1-2.47.5-5.71.83-6,3-3.28-4.9-8.25,2.89-9-4,1.94,2.17,4.09-.56,6,1-1.85-4.4-.35-3.84-4-7,1.4-2.3,6.11-2.27,4,1,3.57-2.72,6.28-.67,10,1,.5-4.27-2.17-2.82,1-6-3.49-.14-5.41.75-9-3,3.1-2.15,4.32-2.2,1-5,2.04-1.29,5.23-3.5,3-6,2.85,1.35,4.72,2.05,8,1M191.29,257.23c1.24,3.31-3.41,3.13,1,6-2,.28-6.03,1.39-4-2-6.5.55-10.05,6.96-17,8,4.45-6.38,15.6-9.65,20-12M254.29,264.23c-2.47,5.23-6.27-.95,0,0M187.29,269.23c-1.89,2.7-9.15,1.35-8,5-2.22.05-3.99-2.29-5-4,4.29,2.99,9.31-3.33,13-1M254.29,276.23c-1.18,3.18-6.89,8.7-8,2,2.9-.05,5.03-4.55,8-2M238.29,287.23c-.25,2.73-5.71,5.43-6,1,1.9-.83,3.63-.61,6-1M203.29,288.23c.49,4.37-2.97,4.29-7,6,.34-2.51-3.64-2.5-4-5,2.37.03,3.72,2.49,6,3,.98-2.01,3.36-2.64,5-4M212.29,303.23c.11-1.88,3.15-4.54,5-3-2,2.85-5.84,7.7-10,6,2.11-2.87.33-4.28,1-7,1.35,1.04,2.01,3.49,4,4M223.29,309.23c-.21,3.21-3.98,3.63-6,5-.18-3.44,2.96-3.73,6-5Z"/>
      <path class="cls-129" d="M652.29,237.23c-3.11-3.57-5.32-8.89-9-12-20.87-6.68-43.67-12.61-65-20,3.82,3.23,6.61,9.24,11.25,12.75,4.63,3.51,7.56,8.24,12.5,11.5s8.5,5.98,14.02,8.98,12.97,3.48,19.22,4.76c6.26,1.29,12.32-6.33,17.01-5.99h0Z"/>
      <path class="cls-38" d="M476.29,259.23c1.63,8.96-10,15.97-12.77,25.23s-9.26,18.44-12.98,28.02c-3.73,9.57-12.37,13.39-18.17,22.83s-.34,24.19.92,33.92c.37-7.98,9.95-13.37,11.93-3.93,1.97,9.45,3.61,10.61,8.84,19.16,5.23,8.55-1.5,11.7-8.07,16.47-6.56,4.78,1.08,14.1,2.55,20.05,1.48,5.94,9.78,11.64,10.52,18.48.74,6.83-12.75,3.06-16.52-1.48-3.76-4.54-17.67-7.1-18.57.93s-4.87,14.95-6.6,21.4c-1.74,6.44-4.12,19.99-10.33,13.17-6.2-6.82-3.88-15.18-2.76-23.26,1.13-8.08.66-18.65,2.01-26.99-1.58-3.88-7.99-5.01-11.23-7.77-3.24-2.77-10.71-3.98-14.77-5.23-2.19-.67-5.82-.73-5-4-2.13,1.23-6.3,1.88-8,0-8.46-.82-18.43,1.73-24.9-2.1-6.47-3.84-9.99-7.93-14.14-10.87-4.15-2.95-13.44-9.19-16.96-13.03-7.47-3.18-17.43-.07-25,0-3.43,5.65-14.73,6.32-18.75,13.25s-9.8,11.88-12.02,19.98c-2.22,8.1-4.4,19.47-2.25,27.79,2.14,8.32,10.88,10.13,17.1,14.9s13.68,8.71,19.92,13.08c42.6,29.82,97.23,60,151,60h15c2.85-.07,6.17-.4,9-1,.93-.2,3.18-.64,4-1,.99-.43,3.92-2.33,5-3,3.35-2.44,8.35-7.84,11-11,4.13-5.78,9.95-18.24,16-21,.34-.15,1.05-.7,1-1-1.04-6.54,10.83-17.67,15-23,4.31-5.52,8.67-13.52,11-20,.28-.77.63-1.27,1-2,1.92-3.76,4-7.56,6-11,6.02-15.36,11.66-30.07,16-46,.45-1.65,1.64-3.68,2-5,1.49-5.52,1.89-11.34,3-17,2.89-14.72,4.32-29.14,14.25-40.75,9.92-11.62,11.46-28.65,11.75-43.25.29-14.59-5.71-29.97-13.08-41.92-7.36-11.96-16.01-20.51-29.25-25.75-13.23-5.24-29.75,3.71-38.42,13.92s-18.95,19.41-25.25,29.75h0Z"/>
      <path class="cls-67" d="M224.29,219.23c-7.09.27-17.83,6.13-23,12,9.79-.59,14.58-8,23-12Z"/>
      <path class="cls-59" d="M231.29,219.23c-8.41,2.92-15.78,7.38-21.97,12.03-6.2,4.64-17.88,4.9-16.03,14.97,3.77-.82,4.18-3.6,2-6,2.18.47,5.31,3,3-1,4.93,5.07,15.12-3.71,19-8-7.21,4.15-.08-5.45,4-4-1.15,5.8,8.38-1.17,12-3-.04-2.99-4.22-1.52-2-5Z"/>
      <path class="cls-6" d="M201.29,233.23c-4.34-4.32-8.5,2.37-12.93,4.07-4.42,1.71-13.05,4.34-12.07,8.93-5.61-2.94-7.9,4.95-13,4,4.73,5.53,13.64-4.79,20.3-7.7,6.67-2.9,11.59-7.32,17.7-9.3h0Z"/>
      <path class="cls-136" d="M235.29,233.23c-3.1-2.05-6.18.93-8,3,2.31,1,3.75,3.64,4,6-2.47-7.37-12.51-5.04-5,1-1.88,1.77-4.11-1.05-4-3-3.94-.79-5.16,3.13-9,3,2.95,4.05-.11,6.5,5,8-.77-5.19,9.25.42,11,5-3.13.62-2.73-4.33-6-3,3.84,4.35,7.66,9.4,13,9-4.06,1.74.06,2.36-4,4,1.86.95,5.5-.49,3,3,2.57-.57,4.95-4.37,8-2-1.61,2.44-3.6,1.06,0,5,2.98-3.88,5.56,1.32,9-1-.74-3.97-6.16-5.26-7-9,5.82-2.9,6.46.1,11,3-4.53,4.24,1.41,4.06-3,8,4.5-2.25.46,1.04,2,3,4.66-1.44,8.25-6.19,13-7-2.1-.81-3.23-3.92-6-3,1.5-3.34.27-4.57-3-3,2.35-2.35,1.33-3.65-2-3,3.72-2.06-1.04-2.45-1-5-.86,1.28-9.66,6.4-9,1-3,1.58-6.33,2.98-10,4,1.19-3.55,7.97-2.4,7-7-2.26-.1-4.73,3.93-6,0-3.92-.06,1.88,3.14-2,4-1.26-2.13-2.8-3.58-4-6-2.22,2.65-3.48.58-6,0,3.61-2.74,1.59-3.03,0-6,3.5.77,2.17-4,6-1-3.08,2.58-1.76,2.83,1,6,2.56-4.15,5.69-3.38,3,1,4.74-3.01,4.78-.73,8,1,.62-3.68,2.77-1.49,5-3-.55-3.49-3.9.53-5-2,8.95-.69-.07-6.3-2-10,.94,5.09-8.61,3.19-6,9-4.48,1.38-.48-3.39-4-3,4.26-1.22,2.68-3.02,3-6-2.44-2.58-2.99,1.98-5,0,.57-2.53,3.67-2.66,5-4h0Z"/>
      <path class="cls-19" d="M190.29,243.23c-9.53,1.43-18.78,9.85-28,14,3.84,9.16,16.14-2.76,22-6-1.29-2.89-6.38,1.92-5-3,3.56.81,7.56-3.64,11-5h0Z"/>
      <path class="cls-142" d="M203.29,255.23c-3.28,1.05-5.15.35-8-1,2.23,2.5-.96,4.71-3,6,3.32,2.8,2.1,2.85-1,5,3.59,3.75,5.51,2.86,9,3-3.17,3.18-.5,1.73-1,6-3.72-1.67-6.43-3.72-10-1,2.11-3.27-2.6-3.3-4-1,3.65,3.16,2.15,2.6,4,7-1.91-1.56-4.06,1.17-6-1,.75,6.89,5.72-.9,9,4,.29-2.17,3.53-2.5,6-3-1.77,2.32,1.16,3.51,2,1-.41,3.01,3.46,7.08,6,5,2.5,1.51-3.88,2.03-1,4,3.04-1.92,6.35-3.72,10-4,.22,3.47.08,4.04-3,7,3.34,1.37,6.97,1.86,3,5,2.73-1.5,3.84.53,6,2,2.43-4.19,9.55-4.44,11-9-2.7-.4-3.05-3.8-6-3,1.34-4.72-3.22-4.22,0-8-4.15,2.23-1.65-1.15,0-3-6.67-5.27-16.87-13.27-23-21h0Z"/>
      <path class="cls-15" d="M433.29,373.23c0-1.33-.06-2.67,0-4-1.26-9.73-6.72-24.48-.92-33.92s14.44-13.26,18.17-22.83c3.72-9.58,10.21-18.76,12.98-28.02,2.77-9.26,14.4-16.27,12.77-25.23-.17-.96.08-2.03,0-3-2.56,4.94-4.07,11.52-7.75,16.25-3.67,4.74-5.23,12.01-10.25,13.75.81,10.47-10.47,18.84-10,30-10.78,3.28-15.24,14.58-19.69,23.31-4.46,8.73.27,12.46-.31,19.69s4.17,11.18,5,14Z"/>
      <path class="cls-90" d="M191.29,257.23c-4.4,2.35-15.55,5.62-20,12,6.95-1.04,10.5-7.45,17-8-2.03,3.39,2,2.28,4,2-4.41-2.87.24-2.69-1-6Z"/>
      <path class="cls-144" d="M187.29,269.23c-3.69-2.33-8.71,3.99-13,1,1.01,1.71,2.78,4.05,5,4-1.15-3.65,6.11-2.3,8-5Z"/>
      <path class="cls-100" d="M254.29,276.23c-2.97-2.55-5.1,1.95-8,2,1.11,6.7,6.82,1.18,8-2Z"/>
      <path class="cls-11" d="M267.29,302.23c-.6-3.05,2.02-2.69,3-5,3.87,3.56,1.1-.79,4-1,1.17,2.18-.94,4.61,3,3-1.03,1.96-3.69,3.79-2,6,5.19,3.6,8.64-6.66,11-1-5.92-.09-5.08,4.86-7,8,4.98-.8,2.94-1.47,3,1,1.22,2.27,4.98.03,7-1,2.95.5,2.75-.91,2-3,2.43.82,3.06,2.95,2,5,5.41-1.11.52.74,0,3,3.89.04,4.9-1.5,8-3-1.06,3.8-8.01,7.37-10,3,2.06,4.84-6.83,6.84-2,12,6.4-1.61,11.21-7.58,17-10-2.84,3.46-5.37,7.05-9,9-1.5,1.49-.43.48-2.23,2.77-1.81,2.29-2.44-.75-2.77-.77-4.77,4.89-7.3-8.98-12-6,1.09-3.2-1.94-6-5-4,2.53-3.07.71-4.6-3-3,2.74-2.71,1.55-4.86-2-3,2.58-2.44-1.98-2.99,0-5-5.24,3.45-4.79-.72-8-1-.5-.04-1.58.18-2,0-2.14-1.05-1.48-3.25-1-5-1.89,1.19-6.84,2.77-4-1-2.38.74-2.61,1.67-5,2-.44-3.26,3.25-2.7,5-4,.9,4.1,2.8,1.72,5,0-2.93-4.26-5.16-4.99-7-10-4.57,1.13-5.41,3.85-3,8-2.34-1.67-5.97,1.32-6,4,1.94-2.01,6.12-3,4,1-2.11-1.53-5.69,1.5-5,4-1.87-1.15-2.61-3.9-5-4,3.67-2.88.28-3.56,4-7-3.68,2.1-7.73,2.74-6,7-3.08.88-3.72.05-6-1-1.34,2.66-2.53,3.71-5,4,.96,1.38,2.75,1.03,4,2,1.89,1.46,1.85,1.58-.3,4.7-2.16,3.11-6.09.16-4.7.3-1.36-1.59-5.3,1.77-5,4,3.81-1.12,5.37,4.25,1,4,1.03,3.15,5.21-.44,3,4,4.2-1.85,6.64,5.1,2,1-.62,3.13,4.33,2.73,3,6,2.33-1.82,8.14-3.67,4-6,4.94-2.17,2.07,2.07,6,2-2.16,1.64-2.45,2.79-5,3,1.5,3.85.31,12.62,8,11,.05,3.03-2.35,4.69-3,7-.97-.52-2.16-1.24-3-2,1.91,2.72,5.14,7.73,6,9,9.25,10.12,19.01,24.66,33,30,2.82-3.38,6.34-6.6,11-7-1.45-1.85.33-2.28,1-4,2.52,2.38,5.22,1.51,8-1-2.2,6.01,6.3,3.49,11,3-1.78-2.79-4.89,1.32-7-1,2.81-2.11,6.26-3.19,8-7,6.52.27-.46,8.17,6,5-2.83,2.85-1.61,3.76-1,6,3.52,3.84,12.81,10.08,16.96,13.03,4.15,2.94,7.67,7.03,14.14,10.87,6.47,3.83,16.44,1.28,24.9,2.1,9.36-3.41-7.45-12.53-7.77-19.23-.33-6.7-3.79-17.02-6.16-24.84-2.36-7.83-9.72-13.26-16.07-15.93-4.48-.38-3.25-1.09-5,1-2.66,3.18-10.43.78-17,2-1.02.56-1.37,3.07-3,3-2.13-3.23-2.31-5.05-6-7,.87,4.95,4.3,4.77,4,10,3.02-3.34,2.55-.12,7,1-2.46-3,3.19-3.01,4-5-2.21-1.17-4.69,2.85-6,1,1.95-1.6,4.2-3.83,7-4,1.05,3.24,1.55,4.78,3,8-2.63-1.43-4.56,2.54-7,4,1.84.67,5.89.53,1,2-.48,2.66,3.52,3.32,3,6,2.94-5.66,4.94.49,3,3,4.36-.87,2.28-7.86,7-5-1.87,3.31-5.42,7.87-10,5,2.43,2.46-.94,4.28-3,5,4.82,2.24,2.03,7.93-3,7,5.7-2.93-1.07-3.52-4-5,3.38-2.88,4.47-7.09,9-4-1.62-3.79-7.27-9.5-9.25-14.75-1.99-5.24-10.6-7.26-6.75-13.25-6.3,2.87-4.84-4.64-1-7-.83-2.08-.4-2.81-3-4,4.41-1.19,7.84,1.32,9,5,3.93-3.44,2.02-6.22,2-11-4.29,3.62-3.95,2.15-6-1,.66,3.38-1.76,1.78-3,4-.31-4.38-3.07-.84-6,0,6.91-9.53,12.93-1.25,21-7-1.78-5.33-7.91-8.09-9-4-1.08-1.8-2.14-6.48-5-4,.11-2.67,1.51-4.49,4-3-.63-2.93-4.68-2.82-3-6-3.49.03-6.05-1.69-5-5-4.7,2.05-4.34-5.19-9-8-.04,4.11.25,5.95,0,10-3.55-1.86-5.39-6.87-9-8,3.22-1.45,4.76-1.95,8-3-3.28-2.53-4.39-5.91-9-4-2.5-1.51,3.88-2.03,1-4-2.46.17-3.22,2.78-5,4,.99-6.01-4.38,3.59-5-3,3.72,2.59,5.27-4.44,9-2-1.12-2.48-3.5-3.52-5-6-3.33,3.01-4.23,1.52-6-1-2.39,4.5-11.54,4.19-15,12,6.07-3.11,3.58-.62,2,4,5.27-.5,6.65,4.95,10,8M269.29,282.23c-2.15,5.15-7.07,1.71,0,0M271.29,284.23c.58.05,1.25,2.18-.13,1.92-1.39-.27-.76-2,.13-1.92M236.29,304.23c-1.76,4.61-6.4,1.16,0,0M262.29,321.23c-6.19,4.85,4.03,7.59,3,11-1.56-.4-4-4.82-4-1,3.4,2.15-2.68,2.88,1,6-1.87,1.17-5.5,2.36-6,5,2.55-1.42,5.16-2.45,8-3-1.19,2.56-3.96,3.4-6,5,4.05,1.57-.27,2.75,1,7-2.33-2.21-3.84-2.99-7-2,.77,3.02,3.25.1,5,2-6.59,5.3-7.58-3.82-11-7,2.81-3.53,3.77.16,7,0-.97-2.72-2.45-5.24,2-3,3.02-4.13.25-5.69,5-8-.45-3.54-4.7-10.4,2-12M278.29,327.23c-2.37,2.85-.91,4.79-4,7,3.11-2.09,5.52.88,6,4-2.45-.44-4.51,1.61-6,3,2.97,1.87,4.22-3.44,6-1-.7,3.48-5.23,1.03-5,4,2.5,1.29,3.38-.25,5-2,3.84-.12,2.93,6.33,7,4-2.95-3.86.52-4.04-3-7,3.76,2.1,4.35-3.28,8-4,2.88,1.97-3.5,2.49-1,4,2.21-1.72,6.09,1.35,6,4-5.05,3.65-3.91-3.47-9,1,6.5.75-1.96,3.68-4,6,.86,2.15,4.27,3.11,3,6,3.22-2.21,3.74-1.76,5,2-3.11-.58-5.94-2.21-9-1,3.53,2.58,12.26.85,6,6,4.15-.67,5.98,2.79,10-1-3.47,3.99-.25,4.75-4,9-3.55-.34-4.53-3.14-1-4-4.7-2.47-7.21,2.84-6,6-3.03-1.12-11.38-4.54-5-8-4.57,1.1-8.85,2.67-12,6,4.26-2.04,6.91-1.63,8,3-1.85.97-4.24,1.79-5,4,2.71.01,6.18-5.46,8-1-3.76.24-5.78,3.33-10,5,1.46-3.51.61-3.86-3-3,4.09-2.4-.28-5.07-2-6,2.69-2.11,3.75-6.1,6-9-4.57.43-4.87,10.21-12,4,3.85-2.68-1.52-1.96-3,0,1.23-3.59-4.58-3.41-4-7,3.59-.64,7.18-1.63,4-5,2.48,2.32,2.55-5,6-2-3.05-3.75-.08-6.12,4-7,.85,2.42-1.87,3.35,3,3-.52-3.96-2.89-4.44-6-5,2.49-5.65,3.31-9.75,0-12,3.12.51,12.36.19,8-5,1.73-.74,3.24-2.42,5-1M254.29,331.23c-1.48,3.01-7.38,5.48-2,7-2.55.21-2.84,1.36-5,3,1.45-3.6.45-3.02-2-4,4.17-.74,4.7-6.01,9-6M280.29,332.23c.74.74-.82-.82,0,0M291.29,333.23c-1.5,1.68-2.78,3.59-5,4-.69-2.5,2.89-5.53,5-4M300.29,340.23c-2.06,1.69-4.53-3.04-5-5,4.04-.46,3.52,2.72,5,5M312.29,336.23c.61.61-1.66-1.66,0,0M299.29,344.23c-1.72,2.84.87,2.75,2,5-4.08,1.12-1.78,2.93,1,1,.66,4.35-6,5.53-2,9-1.93,2.13-6,3-4-1-3.8,1.95-4.42-7-7-10,3.87,3.56,1.1-.79,4-1,2.22,2.27,1.58,4.18,1,7,3.5-1.42,1.96-5.98,0-8,4.58,2.44.49-3.06,5-2M264.29,345.23c.58.05,1.25,2.18-.13,1.92-1.39-.27-.76-2,.13-1.92M335.29,350.23c-1.52,2.16,2.62,3.13-1,5,5.7,1.09-.54,2.16-2,4,2.91.24,5.18-1.76,8-2-.97,2.39-3.91,2.32-6,3,1.93,2.86,3.89,5.31-1,7,.95-4.76-4.29-6.56-3-11-2.83,2.15-2.84-.98-4-3,3.25-.11,4.44-4.35,9-3M305.29,354.23c-3.7,3.14,3.19,4.88,5,8-2.24,3.5-4.8,8.14-9,10,.78-1.98.14-3.34,3-4-3.83-3.81-5.28-12.75,1-14M337.29,363.23c2.81-6.56,7.18,2.65,0,0M344.29,368.23c-4.15-.24-7.01,3.59-11,4-.99-3.26,2.73-5.14,5-3-1.67-4.51,6.46-5.66,6-1M344.29,369.23c.52,4.64.16,4.48-3,8,2.85,1.97,3.19-2.25,6,0-2.03,4.42-7.97,2.63-9,6-2.7.28-2.76-4.67-6-4,2.77-1.62.07-2.34,0-5-3.75.36-5.43,4.64-9,3-.48-5.22,8.16-1.92,7-7,2.32,4.96,5.54,1.74,8,4,.05-2.98,3.44-4.7,6-5M332.29,381.23c-1.96.68-4.47,4.93-6,1-1.39-2,2.25-1.32,2-5,2.22.49,1.74,3.58,4,4M348.29,379.23c-1.82,4.07-2.85,2.63,0,6-5.35.85-5.58-4.9,0-6M336.29,386.23c-2.24,1.15-2.51,1.48-3,4,3.06.42,5.01,3.69,6,6-5.11-1.1-7.24-7.58-11-11,3.44-.95,5.35-.88,8,1M344.29,386.23c-2.92,2.74-4.79,2.91-8,4,.63-2.6,5.46-5.22,8-4M351.29,389.23c-.43,3.67-2.81,4.72-6,6-1.92-3.51,4.15-4.57,6-6M349.29,401.23c-1.63,1.29-3.72,4.08-6,2,4.58-1.02.82-3.31,2-6,2.22.49,1.74,3.57,4,4Z"/>
      <path class="cls-50" d="M271.29,284.23c-.89-.08-1.52,1.65-.13,1.92,1.38.26.71-1.87.13-1.92Z"/>
      <path class="cls-32" d="M238.29,287.23c-2.37.39-4.1.17-6,1,.29,4.43,5.75,1.73,6-1Z"/>
      <path class="cls-39" d="M203.29,288.23c-1.64,1.36-4.02,1.99-5,4-2.28-.51-3.63-2.97-6-3,.36,2.5,4.34,2.49,4,5,4.03-1.71,7.49-1.63,7-6Z"/>
      <path class="cls-17" d="M267.29,302.23c2.68.2,2.82,4.19,6,2,2.15,1.97-2.16,3.11,0,5,2.94-.36,1.82-2.77,2-4-1.69-2.21.97-4.04,2-6-3.94,1.61-1.83-.82-3-3-2.9.21-.13,4.56-4,1-.98,2.31-3.6,1.95-3,5"/>
      <path class="cls-63" d="M212.29,303.23c-1.99-.51-2.65-2.96-4-4-.67,2.72,1.11,4.13-1,7,4.16,1.7,8-3.15,10-6-1.85-1.54-4.89,1.12-5,3Z"/>
      <path class="cls-135" d="M260.29,308.23c.42.18,1.5-.04,2,0-.38-3.02,3.13-.33,4-3-3.48-.67-3.65-2.01-7,0,2.07.26.81,2.74,1,3Z"/>
      <path class="cls-125" d="M224.29,313.23c-1.39-.14,2.54,2.81,4.7-.3,2.15-3.12,2.19-3.24.3-4.7-3.29-.32-.21,2.28-1,4-2.07-2.18-2.61.47-4,1Z"/>
      <path class="cls-95" d="M223.29,309.23c-3.04,1.27-6.18,1.56-6,5,2.02-1.37,5.79-1.79,6-5Z"/>
      <path class="cls-96" d="M281.29,317.23c.31.03.84-.66,1-1-1.49-1.75-3.21-4.06-6-4,2.44,2.19,2.01,3.79,5,5Z"/>
      <path class="cls-23" d="M282.29,313.23c.01.63.35,2.28,0,3-.16.34-.69,1.03-1,1,1.13.46.41.84,2,0,1.25-.66,3.86-2.2,5-3,.88-.62.54-1.61,1-2-2.02,1.03-5.78,3.27-7,1Z"/>
      <path class="cls-13" d="M283.29,317.23c.57,2.07,1.25,3.57,2,6,2.39-.06,4.86-2.67,5-5-3.84,3.58-4.82-.82,0-1,1.43-2.81-1.86-2.18-2-3-1.14.8-3.75,2.34-5,3Z"/>
      <path class="cls-27" d="M288.29,469.23c.47-.12,1.62-.22,2,0-6.24-4.37-13.7-8.31-19.92-13.08s-14.96-6.58-17.1-14.9c-2.15-8.32.03-19.69,2.25-27.79s8-13.05,12.02-19.98,15.32-7.6,18.75-13.25c-.16,0-.66-.98-1-1-4.66.4-8.18,3.62-11,7-13.99-5.34-23.75-19.88-33-30-5.43-4.7-12.06-19.39-19.3-23.7-7.24-4.3-21.26-17.82-28.38-9.98-7.11,7.84,26.05,16.43,11.68,22.68-.89,4.83,14.6,12.52,6.74,16.74-7.86,4.23-4.51,11.03-5.74,18.26s6.21,13.05,10.25,17.75,12.86,6.02,17.67,10.33c4.81,4.32,13.1,4.97,18.08,8.92-2.15,12.29-2.61,28.99,8.75,35.25,11.37,6.26,16,11.23,27.25,16.75h0Z"/>
      <path class="cls-42" d="M262.29,321.23c-6.7,1.6-2.45,8.46-2,12-4.75,2.31-1.98,3.87-5,8-4.45-2.24-2.97.28-2,3-3.23.16-4.19-3.53-7,0,3.42,3.18,4.41,12.3,11,7-1.75-1.9-4.23,1.02-5-2,3.16-.99,4.67-.21,7,2-1.27-4.25,3.05-5.43-1-7,2.04-1.6,4.81-2.44,6-5-2.84.55-5.45,1.58-8,3,.5-2.64,4.13-3.83,6-5-3.68-3.12,2.4-3.85-1-6,0-3.82,2.44.6,4,1,1.03-3.41-9.19-6.15-3-11Z"/>
      <path class="cls-141" d="M315.29,349.23c-1.34.25-3.3,2-3-1,2.15-.85,4.71.55,4-3,.03-1.17-2.52-3.29-2-5,2.34.68,1.86-2.87,4-3-.59-1.83-2.95-.78-4,0,.51-3.68,4.82-5.87,7-5-.68-2.02-4.62-4.19,0-3,1.16-1.76-1.88-1.78-2-2-.5-.88-.61-1.15-1-2-8.07,5.75-14.09-2.53-21,7,2.93-.84,5.69-4.38,6,0,1.24-2.22,3.66-.62,3-4,2.05,3.15,1.71,4.62,6,1,.02,4.78,1.93,7.56-2,11-1.16-3.68-4.59-6.19-9-5,2.6,1.19,2.17,1.92,3,4-3.84,2.36-5.3,9.87,1,7-3.85,5.99,4.76,8.01,6.75,13.25,1.98,5.25,7.63,10.96,9.25,14.75-4.53-3.09-5.62,1.12-9,4,2.93,1.48,9.7,2.07,4,5,5.03.93,7.82-4.76,3-7,2.06-.72,5.43-2.54,3-5,4.58,2.87,8.13-1.69,10-5-4.72-2.86-2.64,4.13-7,5,1.94-2.51-.06-8.66-3-3,.52-2.68-3.48-3.34-3-6,4.89-1.47.84-1.33-1-2,2.44-1.46,4.37-5.43,7-4-1.45-3.22-1.95-4.76-3-8-2.8.17-5.05,2.4-7,4,1.31,1.85,3.79-2.17,6-1-.81,1.99-6.46,2-4,5-4.45-1.12-3.98-4.34-7-1,.3-5.23-3.13-5.05-4-10,3.69,1.95,3.87,3.77,6,7,1.63.07,1.98-2.44,3-3"/>
      <path class="cls-21" d="M278.29,327.23c-1.76-1.42-3.27.26-5,1,4.36,5.19-4.88,5.51-8,5,3.31,2.25,2.49,6.35,0,12,3.11.56,5.48,1.04,6,5-4.87.35-2.15-.58-3-3-4.08.88-7.05,3.25-4,7-3.45-3-3.52,4.32-6,2,3.18,3.37-.41,4.36-4,5-.58,3.59,5.23,3.41,4,7,1.48-1.96,6.85-2.68,3,0,7.13,6.21,7.43-3.57,12-4-2.25,2.9-3.31,6.89-6,9,1.72.93,6.09,3.6,2,6,3.61-.86,4.46-.51,3,3,4.22-1.67,6.24-4.76,10-5-1.82-4.46-5.29,1.01-8,1,.76-2.21,3.15-3.03,5-4-1.09-4.63-3.74-5.04-8-3,3.15-3.33,7.43-4.9,12-6-6.38,3.46,1.97,6.88,5,8-1.21-3.16,1.3-8.47,6-6-3.53.86-2.55,3.66,1,4,3.75-4.25.53-5.01,4-9-4.02,3.79-5.85.33-10,1,6.26-5.15-2.47-3.42-6-6,3.06-1.21,5.89.42,9,1-1.26-3.76-1.78-4.21-5-2,1.27-2.89-2.14-3.85-3-6,2.04-2.32,10.5-5.25,4-6,5.09-4.47,3.95,2.65,9-1,.09-2.65-3.79-5.72-6-4-2.5-1.51,3.88-2.03,1-4-3.65.72-4.24,6.1-8,4,3.52,2.96.05,3.14,3,7-4.07,2.33-3.16-4.12-7-4-1.62,1.75-2.5,3.29-5,2-.23-2.97,4.3-.52,5-4-1.78-2.44-3.03,2.87-6,1,1.49-1.39,3.55-3.44,6-3-.48-3.12-2.89-6.09-6-4,3.09-2.21,1.63-4.15,4-7"/>
      <path class="cls-140" d="M292.29,330.23c.33.02.96,3.06,2.77.77,1.8-2.29.73-1.28,2.23-2.77-.09.05-3.65,1.4-5,2Z"/>
      <path class="cls-143" d="M254.29,331.23c-4.3-.01-4.83,5.26-9,6,2.45.98,3.45.4,2,4,2.16-1.64,2.45-2.79,5-3-5.38-1.52.52-3.99,2-7Z"/>
      <path class="cls-43" d="M291.29,333.23c-2.11-1.53-5.69,1.5-5,4,2.22-.41,3.5-2.32,5-4Z"/>
      <path class="cls-104" d="M318.29,337.23c-2.14.13-1.66,3.68-4,3-.52,1.71,2.03,3.83,2,5,1.23.78,8.17,3.01,9.67.67s4.13,1.28,6.33,1.33c1.75-2.09.52-1.38,5-1,6.29.53,11.97,3.89,16.75,10.25,4.78,6.35,13.22,7.27,20.25,8.75-3.83-12.84-14.94-14.12-22.3-25.7-7.36-11.58-24.8-1.29-33.7-2.3Z"/>
      <path class="cls-72" d="M300.29,340.23c-1.48-2.28-.96-5.46-5-5,.47,1.96,2.94,6.69,5,5Z"/>
      <path class="cls-46" d="M299.29,344.23c-4.51-1.06-.42,4.44-5,2,1.96,2.02,3.5,6.58,0,8,.58-2.82,1.22-4.73-1-7-2.9.21-.13,4.56-4,1,2.58,3,3.2,11.95,7,10-2,4,2.07,3.13,4,1-4-3.47,2.66-4.65,2-9-2.78,1.93-5.08.12-1-1-1.13-2.25-3.72-2.16-2-5Z"/>
      <path class="cls-122" d="M316.29,345.23c.71,3.55-1.85,2.15-4,3-.3,3,1.66,1.25,3,1,6.57-1.22,14.34,1.18,17-2-2.2-.05-4.83-3.67-6.33-1.33-1.5,2.34-8.44.11-9.67-.67Z"/>
      <path class="cls-87" d="M264.29,345.23c-.89-.08-1.52,1.65-.13,1.92,1.38.26.71-1.87.13-1.92Z"/>
      <path class="cls-127" d="M337.29,346.23c6.35,2.67,13.71,8.1,16.07,15.93,2.37,7.82,5.83,18.14,6.16,24.84.32,6.7,17.13,15.82,7.77,19.23,1.7,1.88,5.87,1.23,8,0-.82,3.27,2.81,3.33,5,4-.12-1.82.58-3.29,1-5,2.9-11.76,7.32-22.83,12-34-6.42-1.76-12.7-4.67-19-6-7.03-1.48-15.47-2.4-20.25-8.75-4.78-6.36-10.46-9.72-16.75-10.25Z"/>
      <path class="cls-74" d="M335.29,350.23c-4.56-1.35-5.75,2.89-9,3,1.16,2.02,1.17,5.15,4,3-1.29,4.44,3.95,6.24,3,11,4.89-1.69,2.93-4.14,1-7,2.09-.68,5.03-.61,6-3-2.82.24-5.09,2.24-8,2,1.46-1.84,7.7-2.91,2-4,3.62-1.87-.52-2.84,1-5Z"/>
      <path class="cls-83" d="M305.29,354.23c-6.28,1.25-4.83,10.19-1,14-2.86.66-2.22,2.02-3,4,4.2-1.86,6.76-6.5,9-10-1.81-3.12-8.7-4.86-5-8"/>
      <path class="cls-105" d="M433.29,369.23c-.06,1.33,0,2.67,0,4,0,2.89.43,6.15,0,9-1.24,8.11-10.01,12.9-14.75,19.25s-10.99,14-12.25,21.75c-1.35,8.34-.88,18.91-2.01,26.99-1.12,8.08-3.44,16.44,2.76,23.26,6.21,6.82,8.59-6.73,10.33-13.17,1.73-6.45,5.7-13.37,6.6-21.4s14.81-5.47,18.57-.93c3.77,4.54,17.26,8.31,16.52,1.48-.74-6.84-9.04-12.54-10.52-18.48-1.47-5.95-9.11-15.27-2.55-20.05,6.57-4.77,13.3-7.92,8.07-16.47-5.23-8.55-6.87-9.71-8.84-19.16-1.98-9.44-11.56-4.05-11.93,3.93h0Z"/>
      <path class="cls-30" d="M344.29,368.23c.46-4.66-7.67-3.51-6,1-2.27-2.14-5.99-.26-5,3,3.99-.41,6.85-4.24,11-4Z"/>
      <path class="cls-78" d="M556.29,367.23c-1.11,5.66-1.51,11.48-3,17,3.89-4.32,11.5-5.46,17.98-7.02,6.47-1.57,12.09-8.36,4.09-9.05-7.99-.7-16.01-5.81-19.07-.93h0Z"/>
      <path class="cls-57" d="M723.29,413.23c3.42-9.32,3.32-22.4-5.32-28.68-8.65-6.28-21.92,6.12-29.68,5.68,3.77-7.27,4-14.57,4-23-1.88,9.67-5,20.01-7,30,9.21-4.23,14.69-14.8,26.78-12.78,12.09,2.03,11.89,18.93,11.22,28.78Z"/>
      <path class="cls-134" d="M285.29,379.23c.34.02.84,1,1,1,7.57-.07,17.53-3.18,25,0-.61-2.24-1.83-3.15,1-6-6.46,3.17.52-4.73-6-5-1.74,3.81-5.19,4.89-8,7,2.11,2.32,5.22-1.79,7,1-4.7.49-13.2,3.01-11-3-2.78,2.51-5.48,3.38-8,1-.67,1.72-2.45,2.15-1,4Z"/>
      <path class="cls-66" d="M344.29,369.23c-2.56.3-5.95,2.02-6,5-2.46-2.26-5.68.96-8-4,1.16,5.08-7.48,1.78-7,7,3.57,1.64,5.25-2.64,9-3,.07,2.66,2.77,3.38,0,5,3.24-.67,3.3,4.28,6,4,1.03-3.37,6.97-1.58,9-6-2.81-2.25-3.15,1.97-6,0,3.16-3.52,3.52-3.36,3-8Z"/>
      <path class="cls-133" d="M381.29,405.23c.17,1,2.77,2.33,2,4,8.77.54,15.59,6.95,23,10,3.51-15.52,19.4-23.15,25-37-11.32-5.41-25.66-7.61-38-11-4.68,11.17-9.1,22.24-12,34Z"/>
      <path class="cls-106" d="M332.29,381.23c-2.26-.42-1.78-3.51-4-4,.25,3.68-3.39,3-2,5,1.53,3.93,4.04-.32,6-1Z"/>
      <path class="cls-22" d="M348.29,379.23c-5.58,1.1-5.35,6.85,0,6-2.85-3.37-1.82-1.93,0-6Z"/>
      <path class="cls-24" d="M381.29,405.23c-.42,1.71-1.12,3.18-1,5,4.06,1.25,11.53,2.46,14.77,5.23,3.24,2.76,9.65,3.89,11.23,7.77,1.26-7.75,7.51-15.4,12.25-21.75s13.51-11.14,14.75-19.25c-.08.19-1.59.19-2,0-5.6,13.85-21.49,21.48-25,37-7.41-3.05-14.23-9.46-23-10,.77-1.67-1.83-3-2-4Z"/>
      <path class="cls-119" d="M336.29,386.23c-2.65-1.88-4.56-1.95-8-1,3.76,3.42,5.89,9.9,11,11-.99-2.31-2.94-5.58-6-6,.49-2.52.76-2.85,3-4Z"/>
      <path class="cls-60" d="M344.29,386.23c-2.54-1.22-7.37,1.4-8,4,3.21-1.09,5.08-1.26,8-4Z"/>
      <path class="cls-118" d="M551.29,389.23c-4.34,15.93-9.98,30.64-16,46-.17.43,0,1,0,1,6.8.48,13.24-5.13,19.93-6.07,6.69-.95,11.79-6.24,18.37-7.63,6.59-1.38,11.8-9.03,6.45-13.05-5.34-4.02-10.24-9.27-14.67-11.33-4.44-2.05-12.59-10.34-14.08-8.92Z"/>
      <path class="cls-126" d="M351.29,389.23c-1.85,1.43-7.92,2.49-6,6,3.19-1.28,5.57-2.33,6-6Z"/>
      <path class="cls-137" d="M349.29,401.23c-2.26-.43-1.78-3.51-4-4-1.18,2.69,2.58,4.98-2,6,2.28,2.08,4.37-.71,6-2Z"/>
      <path class="cls-86" d="M529.29,446.23c2.51-2.8,4.55-6.3,6-10,0,0-.17-.57,0-1-2,3.44-4.08,7.24-6,11Z"/>
      <path class="cls-35" d="M609.29,445.23c-7.01-.1-13.53-.21-19.97,2.03-6.44,2.23,1.11,7.37,4.72,10.22,3.62,2.84,8.99,8.36,14.25,7.75s15.17,2.52,17-4c-6.37-4.07-17.88-6.02-16-16Z"/>
      <path class="cls-118" d="M528.29,448.23c-2.33,6.48-6.69,14.48-11,20-.03,1.14-1.53,1.72-1,3,6.55,2.63,15.9,6.69,23,6s17.27-.58,20.67-7.33c3.4-6.74-11.97-9.45-14.42-12.92-2.46-3.46-7.3-1.69-9-5-1.7-3.3-7.5-3.04-8.25-3.75Z"/>
      <path class="cls-112" d="M287.29,470.23c2.2,3.3,9.81,3.85,13.08,7.92,3.26,4.08,10.41,4.82,14.17,8.83,3.75,4.02,11.38,3.74,14.75,8.25.2.27.74.89,1,1,9.91,4.13,20.87,9.71,30,15,.66.39,1.34.56,2,1,.35.23,1,0,1,0,3.29.07,3.71,1.89,6,3,10.95.54,19.37,7.84,30.03,9.97,10.66,2.13,23.47,5.59,34.97,6.03,5.02.19,16.23,1.78,20-1-4.39.63-9.39-.65-13-1-53.77,0-108.4-30.18-151-60-.38-.22-1.53-.12-2,0-.35.09-.76.94-1,1h0Z"/>
      <path class="cls-26" d="M193.29,665.23c-.73,5.38-.05,13.84-4.32,19.68-4.27,5.84-1.31,14.5-8.68,17.32-.07,2.52.93,7.25-3,7-.77,1.8-2.2,3.88-3,6-1.19,6.83-2.15,12.41-6.3,18.7-4.15,6.29-3.89,11.13-8.7,16.3-1.75,3.55-5.9,7.92-7.23,11.77-1.33,3.85-7.29,8.1-6.77,12.23,12.99,10.83,27.29,21.95,45,25,1.53,0,5.09-2.42,7,0,4.96-6.11,7.35-13.36,12.31-19.69,4.95-6.34,8.35-14.84,13.69-17.31,5.38-8.09,10.78-16.58,16-25,1.6-4.74,1.1-3.13,4-6,4.06-6.57,8.18-13.29,12.08-19.92,3.89-6.64,6.02-14.43,10.14-20.86,4.13-6.42,5.24-16.91,9-23,3.77-6.08,2.63-19.37,7.78-23.22,5.07-3.79,4.55,17.41,12,15v9c6.27,1.93,8.88,13.03,8,19,2.05,4.38,3.95,8.61,6,13,4.37,5.06,6.81,11.85,10.97,19.03,4.17,7.18,5.75,18.67,11.03,21.97,1.98,12.78,11.1,23.77,11,36,5.16,11.97,10.39,23.82,15,36,5.96,6.52,20.8-5.01,26-8-2.53.95-6.48,3.61-8,0,6.62-.86,14.07-9.86,20-4,4.61-1.88,9.14-3.96,14-5-.17-2.14.11-4.84,2-6-8.03-32.34-19.21-64.46-30-96-3.42-5.7-4.2-10.01-5-16-3.29-9.02-6.51-18.12-10-27-3.15-4.31-9.77-14.48-11.93-23.07-2.15-8.6-13.9-20.01-11.07-28.93,1.09-3.42,15.5,4.02,20.98,5.02,5.47,1.01,16.89,5.11,23.34,6.66,6.46,1.55,16,4.54,22.68,6.32,6.85.43,12.43.54,19,3,12.74-.84,24.83,8.55,37.69,9.31,12.87.75,25.59,6.67,38.31,8.69,12.72,2.02,25.16,6.83,38,9,7.56,1.28,14.15,2.2,22,3,7.86.8,16.4-1.53,24-1,.5.04,1.5,0,2,0,2.34-1.12,5.65-.95,8-2,.5-.23.67-1.71,1-2-.16-.59-2.4-.83-2-2,4.82-3.23,9.9-4.93,16-4,.73,2.21-2.74,1.66-2,4,7.17-.22,17.68-9.14,22.75-14.25,5.08-5.1,14.82-15.19,14.25-22.75-.04-.5,0-1,0-1-3.66-.98-1.36-5.82-2-9,2.31.61,2.03,3.13,2,5,.28-1.48,2.37-2.82,3-4,5.55-20.49-.79-35.47-4-55-3.75-2.16-7.72-2.9-10-7-1.9.69-5.9,2.98-4-1-12.65,7.85-28.2.21-42.67-.33-14.47-.54-29.1-3.79-42.33-8.67-8.67-3.2-13.77-7.77-19-13-8.83-5.7-17.46-12.02-26-18-8.94-.17-8.91,15.41-14.31,19.69-5.39,4.29-12.71,13.38-18.69,15.31-1.49.48-3.07.71-5,1,1.12-.01,4.14,2.06,6,1-8.51,6.09-22.96,4.39-33,3,6.23-3.32,16.34,1.87,22-3-8.36,1.58-18.06,1.13-26,0-11.5-.44-24.31-3.9-34.97-6.03s-19.08-9.43-30.03-9.97c-1.6-.08-4.02,2.06-6,1v-4s-.65.23-1,0c-1.09,6.48-6.94-.25-2-1-9.13-5.29-20.09-10.87-30-15,.13,4.39-5.76,3.28-4-1h3c-3.37-4.51-11-4.23-14.75-8.25-3.76-4.01-10.91-4.75-14.17-8.83-3.27-4.07-10.88-4.62-13.08-7.92-18.54,4.85-35.42,12.98-39.68,33.32-4.25,20.34-11.61,35.98-17,55s-12.43,35.28-18.34,53.66c-5.92,18.37-12.41,34.99-18.98,53.02M337.29,500.23c1.17,3.91-4.01,3.47-6,2,.77-2.71,3.89-1.86,6-2M422.29,532.23c-4.26,1.61-11.81,1.7-16,0,4.26-1.61,11.81-1.7,16,0M461.29,537.23c-5.67,3.84-16.61,2.12-23,1,6.97-1.27,15.89-2.08,23-1M650.29,564.23c-.7,2.99,3.82,9.55-2,9,.56-2.91-1.53-7.58,2-9M462.29,623.23c-.32,6.24-8.41,1.99-11,0,2.74-1.76,7.28,1.07,11,0M476.29,626.23c.28,3.91-4.5,2.9-7,3-.27-3.91,4.5-2.9,7-3M614.29,638.23c3.47.2,3.28-11.38,7.7-6.69,4.41,4.68-4.87,9.72-7.7,6.69Z"/>
      <path class="cls-4" d="M501.29,492.23c-.04.16,1.81,1.87,2,2,8.54,5.98,17.17,12.3,26,18,6.43,4.15,12.54,9.4,19,13,13.23,4.88,27.86,8.13,42.33,8.67,14.47.54,30.02,8.18,42.67.33,3.65-2.26,10.15,3.91,14,7,.25-.25,1,0,1,0,.01-7.44,3.35-13.99,5-21-13.98,2.11-30.81.53-45,1s-30.81-.12-43.98-1.02c-13.16-.91-21.73-9.25-32.94-13.06-11.22-3.81-17.94-13.7-29.08-15.92.05.3-.66.85-1,1h0Z"/>
      <path class="cls-61" d="M485.29,513.23c-2.72,3.81-7.06,8.56-11,11-1.08.67-4.01,2.57-5,3,1.09.49.4,1.65,1,2,5.98-1.93,13.3-11.02,18.69-15.31,5.4-4.28,5.37-19.86,14.31-19.69-.19-.13-2.04-1.84-2-2-6.05,2.76-11.87,15.22-16,21Z"/>
      <path class="cls-108" d="M330.29,496.23c-.26-.11-.8-.73-1-1h-3c-1.76,4.28,4.13,5.39,4,1Z"/>
      <path class="cls-111" d="M337.29,500.23c-2.11.14-5.23-.71-6,2,1.99,1.47,7.17,1.91,6-2Z"/>
      <path class="cls-80" d="M362.29,512.23c-.66-.44-1.34-.61-2-1-4.94.75.91,7.48,2,1Z"/>
      <path class="cls-29" d="M369.29,515.23c-2.29-1.11-2.71-2.93-6-3v4c1.98,1.06,4.4-1.08,6-1Z"/>
      <path class="cls-138" d="M548.29,525.23c-6.46-3.6-12.57-8.85-19-13,5.23,5.23,10.33,9.8,19,13Z"/>
      <path class="cls-79" d="M474.29,524.23c3.94-2.44,8.28-7.19,11-11-2.65,3.16-7.65,8.56-11,11Z"/>
      <path class="cls-123" d="M465.29,528.23c-2.95,1.28-5.72,3.42-9,1h-1c-.26.12-.7.78-1,1-3.77,2.78-14.98,1.19-20,1,7.94,1.13,17.64,1.58,26,0,1.75-.33,3.24-.73,5-1,1.93-.29,3.51-.52,5-1-.6-.35.09-1.51-1-2-.82.36-3.07.8-4,1Z"/>
      <path class="cls-8" d="M456.29,529.23c3.28,2.42,6.05.28,9-1-2.83.6-6.15.93-9,1Z"/>
      <path class="cls-85" d="M454.29,530.23c.3-.22.74-.88,1-1h-14c3.61.35,8.61,1.63,13,1Z"/>
      <path class="cls-116" d="M460.29,531.23c-5.66,4.87-15.77-.32-22,3,10.04,1.39,24.49,3.09,33-3-1.86,1.06-4.88-1.01-6-1-1.76.27-3.25.67-5,1Z"/>
      <path class="cls-28" d="M422.29,532.23c-4.19-1.7-11.74-1.61-16,0,4.19,1.7,11.74,1.61,16,0Z"/>
      <path class="cls-7" d="M633.29,534.23c-1.9,3.98,2.1,1.69,4,1,2.28,4.1,6.25,4.84,10,7-.08-.49,0-1,0-1-3.85-3.09-10.35-9.26-14-7Z"/>
      <path class="cls-47" d="M461.29,537.23c-7.11-1.08-16.03-.27-23,1,6.39,1.12,17.33,2.84,23-1Z"/>
      <path class="cls-101" d="M647.29,542.23c3.21,19.53,9.55,34.51,4,55-.59,2.19-.22,8.4-3,9,.57,7.56-9.17,17.65-14.25,22.75-5.07,5.11-15.58,14.03-22.75,14.25-.5.02-1.5.03-2,0-.34.21-1.04,2.63-2,3,.5,0,1.52.11,2,0,23.91-5.3,44.15-33.74,46-57,.55-6.9.77-15.12,0-22-2.06-8.86-3.85-17.52-7-26,0,0-.75-.25-1,0,0,0-.08.51,0,1Z"/>
      <path class="cls-37" d="M650.29,564.23c-3.53,1.42-1.44,6.09-2,9,5.82.55,1.3-6.01,2-9Z"/>
      <path class="cls-130" d="M655.29,589.23c1.27-6.56,1.54-15.37,0-22,.77,6.88.55,15.1,0,22Z"/>
      <path class="cls-31" d="M648.29,605.23c0-1.33.06-2.67,0-4,.03-1.87.31-4.39-2-5,.64,3.18-1.66,8.02,2,9Z"/>
      <path class="cls-41" d="M648.29,601.23c.06,1.33,0,2.67,0,4,0,0-.04.5,0,1,2.78-.6,2.41-6.81,3-9-.63,1.18-2.72,2.52-3,4Z"/>
      <path class="cls-115" d="M365.29,651.23c-2.21-5.64-5.41-12.26-7.08-17.92-1.67-5.67-6.88-11.88-7.61-17.39-.74-5.5-8.72-12.11-8.31-16.69-2.83,8.92,8.92,20.33,11.07,28.93,2.16,8.59,8.78,18.76,11.93,23.07h0Z"/>
      <path class="cls-128" d="M409.29,617.23c3.99,1.06,8.03,1.98,12,3,1.35.35,2.7.66,4,1,.38-.03,2.02-.93,3-1-6.57-2.46-12.15-2.57-19-3Z"/>
      <path class="cls-36" d="M425.29,621.23c40.35,10.46,81.17,20.69,122,29-1.24-.39-3.58-2.55-5-3-12.84-2.17-25.28-6.98-38-9s-25.44-7.94-38.31-8.69c-12.86-.76-24.95-10.15-37.69-9.31-.98.07-2.62.97-3,1h0Z"/>
      <path class="cls-62" d="M462.29,623.23c-3.72,1.07-8.26-1.76-11,0,2.59,1.99,10.68,6.24,11,0Z"/>
      <path class="cls-93" d="M476.29,626.23c-2.5.1-7.27-.91-7,3,2.5-.1,7.28.91,7-3Z"/>
      <path class="cls-91" d="M614.29,638.23c2.83,3.03,12.11-2.01,7.7-6.69-4.42-4.69-4.23,6.89-7.7,6.69Z"/>
      <path class="cls-18" d="M599.29,645.23c2.38-2.1,6.78-2.2,10-2,.5.03,1.5.02,2,0-.74-2.34,2.73-1.79,2-4-6.1-.93-11.18.77-16,4-.4,1.17,1.84,1.41,2,2Z"/>
      <path class="cls-68" d="M282.29,644.23c6.85,14.37,13.32,28.71,20,43,.88-5.97-1.73-17.07-8-19v-9c-7.45,2.41-6.93-18.79-12-15Z"/>
      <path class="cls-147" d="M599.29,645.23c-.33.29-.5,1.77-1,2,1.64-.87,6.04-.96,8-1,.5-.01,1,0,1,0,.96-.37,1.66-2.79,2-3-3.22-.2-7.62-.1-10,2Z"/>
      <path class="cls-14" d="M598.29,647.23c-.41.22-.72,1.86-1,2,2.85-.46,7.16-.59,9-3-1.96.04-6.36.13-8,1Z"/>
      <path class="cls-55" d="M597.29,649.23c-.49.08-1,0-1,0-9.09,4.29-25.39,4.31-36,3,13.5,5.5,37.32.1,49-6-.48.11-1.5,0-2,0,0,0-.5-.01-1,0-1.84,2.41-6.15,2.54-9,3Z"/>
      <path class="cls-25" d="M458.29,652.23c2.36-2.49,5.34.38,8,0-1.62,12.33-5.04,26.22-4,38,.88-5.56,3.27-13.59,2.98-19.02-.29-5.44,4.82-15.43,3.02-19.98-3.03-1.19-6.74-2.78-10-4,.44,1.16.09,3.74,0,5Z"/>
      <path class="cls-120" d="M547.29,650.23c3.62.74,7.28.86,11,1,9.99.38,21.12.68,30-2-7.6-.53-16.14,1.8-24,1-7.85-.8-14.44-1.72-22-3,1.42.45,3.76,2.61,5,3Z"/>
      <path class="cls-65" d="M590.29,649.23h6s.51.08,1,0c.28-.14.59-1.78,1-2-2.35,1.05-5.66.88-8,2Z"/>
      <path class="cls-107" d="M558.29,651.23c.52.11.99.88,2,1,10.61,1.31,26.91,1.29,36-3h-6c-.5,0-1.5.04-2,0-8.88,2.68-20.01,2.38-30,2Z"/>
      <path class="cls-121" d="M458.29,652.23c-10.07,60.51-17.68,122.17-29,182-.74-4.78-4.48-4.3-8-5-4.96,1.96-5.01,13.12-10.75,16.25s-8.57,10.36-15,13c-6.42,2.65-13.41-1.29-20.32-3.18-6.92-1.88-15.05-3.65-21.93-6.07-.01-5.15,2.89-9.59,2-15-1.24-10.59-8.56,4.95-13,8-8.2,7.81-19.75,15.32-28,26-1.44-2.2-4.12.54-5-1-4.62,3.33-9.85,7.48-15,10-7.99,6.63-19.15,5.29-31,5-1.36,1.51-.49,4.46-3,5-.01,10.53,15.81,13.01,25,13s24.42-1.78,34.67-3.33,25.05-2.29,36.33-1.67,24.83,1.4,36,0,19.53-5.82,30-9c-.45,4.71-1.3,9.32-2,14,.32,6.14.41,11.15-1,19s-.51,11.16-2.93,20.07c-2.42,8.91,4.6,10.49,5.26,1.26s3.88-12.88,3.65-21.35c-.24-8.48,2.29-13.19,5.02-19.98.56-6.67,2.68-13.22,3-20,3.54-1.18,8.13-4.01,9-8-6.79-13-4.46-26.93-2-41s4.6-28.83,7-43c.15-10.11.96-22.18,4-30,3.2-21.88,7.46-44.76,11-67-1.04-11.78,2.38-25.67,4-38-2.66.38-5.64-2.49-8,0h0Z"/>
      <path class="cls-70" d="M624.29,665.23c3.98,24.69,8.02,50.08,11.07,74.93s10.09,49.11,11.93,74.07c1.85,24.96,11.57,49.9,11,75,.32-.24,1,0,1,0,5.51,1.98,2.21,11.74,4,17s1.01,15.01,1,20c.62,3.51.49,10.15,3,13-.76-2.4,6.21-1.31,7,0-.05-1.76,1.53-3.07,1-5-.19-2.9-.58-5.35-1-8-2.79-5.97-3.45-12.8-5.32-19.68s-1.12-15.11-3.01-21.99-1.08-15.3-.67-19.33c-1.29-8.43-3.18-17.39-4.07-25.93-.89-8.53-3.32-16.44-4-25-.69-8.55-3.22-16.53-3.94-25.06-.72-8.54-3.14-16.52-3.99-25.01-.86-8.48-3.55-17.52-4-26-.46-8.48-3.61-16.8-4-25s-3.83-17.57-3.67-25.33c.16-7.76-6.08-18.56-3.33-25.67-3.01,1.35-6.88,1.81-10,3Z"/>
      <path class="cls-94" d="M177.29,709.23c3.93.25,2.93-4.48,3-7,7.37-2.82,4.41-11.48,8.68-17.32s3.59-14.3,4.32-19.68c-5.32,14.59-9.92,29.75-16,44h0Z"/>
      <path class="cls-58" d="M380.29,694.23c-1.81-5.28-3.1-10.79-5-16,.8,5.99,1.58,10.3,5,16Z"/>
      <path class="cls-56" d="M341.29,777.23c.1-12.23-9.02-23.22-11-36-5.28-3.3-6.86-14.79-11.03-21.97-4.16-7.18-6.6-13.97-10.97-19.03,11.84,25.33,21.96,51.43,33,77Z"/>
      <path class="cls-131" d="M159.29,750.23c4.81-5.17,4.55-10.01,8.7-16.3s5.11-11.87,6.3-18.7c-4.43,11.72-9.46,23.8-15,35Z"/>
      <path class="cls-5" d="M239.29,737.23c1.15-1.86,2.74-3.96,4-6-2.9,2.87-2.4,1.26-4,6Z"/>
      <path class="cls-3" d="M447.29,787.23c1.69-10.02,2.52-19.88,4-30-3.04,7.82-3.85,19.89-4,30Z"/>
      <path class="cls-145" d="M190.29,799.23c1.17.2,1.87.78,3,1,9.06-1.08,12.23-9.66,17.08-16.92,4.84-7.27,8.12-13.87,12.92-21.08-5.34,2.47-8.74,10.97-13.69,17.31-4.96,6.33-7.35,13.58-12.31,19.69-1.91-2.42-5.47,0-7,0Z"/>
      <path class="cls-92" d="M149.29,779.23c10.76,9.37,27.71,23.83,43,22,.06-.24.8-.98,1-1-1.13-.22-1.83-.8-3-1-17.71-3.05-32.01-14.17-45-25,.15,1.17,3.1,4.21,4,5Z"/>
      <path class="cls-45" d="M141.29,799.23c2.08,3.32,4.78,6.52,7,10,1.05,1.65,1.56,2.45,3,4,5.29,4.52,9.94,5.38,17,5,3.77-.2,6.5-1.43,10-2,.49-.08,1,0,1,0,2.56-1.89,9.74.82,11-3s.99-8.13,2-12c-15.29,1.83-32.24-12.63-43-22-4.32.4-3.44,6.71-7.08,8.92-3.65,2.21-2.44,7.73-.92,11.08Z"/>
      <path class="cls-102" d="M123.29,789.23c12.39-7.13,6.99,3.24,1,9,3.12-2.56,8.63-4.25,9.64-9.3,1.01-5.05-8.07-1.53-10.64.3Z"/>
      <path class="cls-89" d="M123.29,789.23c-15.07,8.67-30.76,4.49-48,8s-31.66-3.52-49-5-19.72,24.4-12,36c3.73,4.77,10.36,9.79,15,13,3.7,1.81,7.19,3.63,11,5,8.9,3.21,17.65,7.07,26,11,1.46.49,2.45.69,4,1,4.08.82,6.69,2.31,10,4,4.64,1.67,9.65,3.36,14,5,9.47,3.58,20.33,6.23,30,9,17.25,4.95,35.77,13.01,54,11,4.94-2.34,8.97-12.37,11.01-16.99,2.03-4.62,6.18-21.62-1.99-19.99-8.16,1.64-16.91,2.87-25.02.98-8.11-1.9-13.69-2.95-21-6-8.34-3.48-19.21-9.59-24-18-3.18-5.59-.45-10.18-1-16-.18-.8-2.06-2.67-3-3,.33-3.67,4.51-5.05,7-7,1.29-.93,2.73-1.96,4-3,5.99-5.76,11.39-16.13-1-9Z"/>
      <path class="cls-2" d="M179.29,816.23s-.51-.08-1,0c-8.48,5.91-22.04,6.96-28.75-1.25s-11.05-16.57-13.25-26.75c-6.74,6.44-11.81,13.96-20,19,1.01,10.52,1.77,21.74,11.77,28.23,10,6.49,18.58,9.83,29.94,12.06,11.35,2.24,24.44,5.24,35.29-1.29.84-10.09.24-19.69-1-29-4.5.43-8.81-.31-13-1h0Z"/>
      <path class="cls-12" d="M394.29,801.23c-3.67,1.5-8.11,2.54-12,4-5.2,2.99-20.04,14.52-26,8,.74,1.96,2.59,4.1,3,5,4.13.77,12.15-6.31,17.03-6.97,4.87-.67,11.75-5.67,16.2-7.8s14.81-3.16,17.77-7.23c-.1-1.35.55-3.78,0-6-1.89,1.16-2.17,3.86-2,6-4.86,1.04-9.39,3.12-14,5h0Z"/>
      <path class="cls-20" d="M359.29,818.23c1.1,4.84,2.57,10.62,3,16,9.47,4.54,17.73,9.61,29,9,7.29-1.04,21.05-8.66,25-16,3.82-8.55-5.34-21.99-6-31-2.96,4.07-13.32,5.1-17.77,7.23-4.45,2.13-11.33,7.13-16.2,7.8-4.88.66-12.9,7.74-17.03,6.97h0Z"/>
      <path class="cls-54" d="M148.29,809.23c-2.22-3.48-4.92-6.68-7-10,1.88,4.16,4.21,6.54,7,10Z"/>
      <path class="cls-44" d="M382.29,805.23c3.89-1.46,8.33-2.5,12-4-5.93-5.86-13.38,3.14-20,4,1.52,3.61,5.47.95,8,0Z"/>
      <path class="cls-124" d="M116.29,811.23c.57-2.19-2.52-2.86-2-5,2.59-.99,4.07-3.26,6-5-2.49,1.95-6.67,3.33-7,7,.94.33,2.82,2.2,3,3Z"/>
      <path class="cls-64" d="M178.29,887.23c-18.23,2.01-36.75-6.05-54-11-3.23-.33-7.6-1.08-12-1s-5.63-5.34-10.23-4.77-8.18-3.66-7.77-3.23c-4.35-1.64-9.36-3.33-14-5-3.24-1.17-7-3.05-10-4-1.55-.31-2.54-.51-4-1-9.03-3.05-17.64-6.86-26-11-3.81-1.37-7.3-3.19-11-5-1.64-.81-3.44-1.25-5-2-13.75-5.38-16.7-21.42-17-36-9.01,9.56-10.67,27.59.75,35.25,11.42,7.65,21.36,12.94,33.24,18.76,11.89,5.82,24.12,9.6,35.94,16.06,11.81,6.47,26.88,6.83,38.84,13.16,11.96,6.33,25.74,8.64,38.01,13.99s29.52,3.06,29.22-14.22c-1.49,1.22-3.21.8-5,1Z"/>
      <path class="cls-33" d="M168.29,818.23c-7.06.38-11.71-.48-17-5,5.5,5.9,9.52,6.21,17,5Z"/>
      <path class="cls-71" d="M141.29,845.23c-6.97-3.68-19.23-10.9-24-18,4.79,8.41,15.66,14.52,24,18Z"/>
      <path class="cls-114" d="M355.29,834.23c.89,5.41-2.01,9.85-2,15,6.88,2.42,15.01,4.19,21.93,6.07,6.91,1.89,13.9,5.83,20.32,3.18,6.43-2.64,9.26-9.87,15-13s5.79-14.29,10.75-16.25c-1.88.52-1.87-1.43-3-2-10.39,22.27-50.71,23.41-60,0,.61,2.85-2.42,4.81-3,7Z"/>
      <path class="cls-84" d="M391.29,843.23c8.64-.47,21.07-7.2,25-16-3.95,7.34-17.71,14.96-25,16Z"/>
      <path class="cls-99" d="M309.29,867.23c.88,1.54,3.56-1.2,5,1,8.25-10.68,19.8-18.19,28-26-11.34,7.78-21.83,16.94-33,25Z"/>
      <path class="cls-146" d="M66.29,857.23c-8.35-3.93-17.1-7.79-26-11,8.36,4.14,16.97,7.95,26,11Z"/>
      <path class="cls-76" d="M80.29,862.23c-3.31-1.69-5.92-3.18-10-4,3,.95,6.76,2.83,10,4Z"/>
      <path class="cls-16" d="M674.29,926.23c-1.76-11.05-3-22.04-5-33-1.7-9.31-2.57-18.63-4-28-.41,4.03-1.22,12.45.67,19.33,1.89,6.88,1.14,15.11,3.01,21.99s2.53,13.71,5.32,19.68Z"/>
      <path class="cls-9" d="M124.29,876.23c-9.67-2.77-20.53-5.42-30-9-.41-.43,3.17,3.8,7.77,3.23s5.83,4.85,10.23,4.77,8.77.67,12,1Z"/>
      <path class="cls-1" d="M430.29,899.23c-.08.98.15,2.03,0,3,3.59-2.34,9.57,2.03,13.23-1.77,3.65-3.8,4.06-6.86,3.77-12.23-.37-6.74-2.32-11.88-5-17-.87,3.99-5.46,6.82-9,8-.32,6.78-2.44,13.33-3,20Z"/>
      <path class="cls-97" d="M260.29,885.23c-.08.49,0,1.5,0,2,2.51-.54,1.64-3.49,3-5,11.85.29,23.01,1.63,31-5-4.66,2.28-12.82,4.5-17.93,3.93-5.1-.57-14.86-3.39-16.07,4.07Z"/>
      <path class="cls-69" d="M267.29,909.23c8.07,1.91,16.43,1.94,25,2s16.61-1.22,25-2c8.4-.77,17.79-.57,26-2s14.95-2.62,23.22-3.78c8.27-1.15,17.79,1.26,25.8-1.2,8.02-2.45,20.34,3.38,27.98-.02.11-.47-.06-1.51,0-2,.7-4.68,1.55-9.29,2-14-10.47,3.18-18.83,7.6-30,9s-24.72.62-36,0-26.08.12-36.33,1.67-25.48,3.32-34.67,3.33-25.01-2.47-25-13c0-.5-.08-1.51,0-2-6.15,9.73-5.24,19.81,7,24h0Z"/>
      <path class="cls-81" d="M447.29,888.23c.29,5.37-.12,8.43-3.77,12.23-3.66,3.8-9.64-.57-13.23,1.77-1.04,6.96-2.62,19.47-4,26s.54,21.95-8.01,21.99c-8.54.04-2.89-15.74-2.06-22.06.83-6.33,2.51-19.17,4.07-25.93-7.64,3.4-19.96-2.43-27.98.02-8.01,2.46-17.53.05-25.8,1.2-8.27,1.16-15.01,2.35-23.22,3.78s-17.6,1.23-26,2c-8.39.78-16.43,2.06-25,2s-16.93-.09-25-2c-5.45-.67-10.78-4.39-12-10-7.8,1.87-15.95,2.01-24,3s-17.11.59-24.99,2.01c-7.89,1.42-15.91,2.9-23.99,3.01-8.07.11-15.6,2.48-23,4-7.39,1.53-15.08,1.89-22.02,3.98s-17.39,1.05-23.78,3.22c-6.38,2.17-14.65,5.02-20.14,6.86-5.5,1.83-15.47,6.08-13,11.84,2.47,5.75,10.07,7.32,15.92,10.08,5.84,2.76,15.34,2.68,22.33,4.67,6.99,1.99,16.42,1.4,24,3s16.59,1.58,24.67,2.33c8.07.76,16.67,1.64,25,2,8.33.37,16.37,1.24,25,1s17.43.6,25.99,1.01c8.57.41,17.13,1.59,26.01.99s17.45.16,26,1,17.25-.36,26,0,18.13-.16,27,0,18.11-.07,27,0,18.15-.02,27,0,17.19.02,26,0,17.77.36,26.33-.67c8.56-1.03,17.96-.02,26.67-.33s17.39-.52,25.99-1.01,17.13-1.95,26.01-.99,16.29-1.6,25-1,16.64-1.25,25-2,17.82.37,26-1,16.68-1.6,25-2,15.77-1.5,24-2,17.02-.61,25-2,17.04-1.02,24.98-2.02c7.93-1.01,15.55-3.05,23.35-3.65,7.8-.6,15.61-2.2,22.67-4.33,7.06-2.14,14.91-2.84,21.78-4.22,6.87-1.39,14.51-4.11,20.19-6.81,5.67-2.71,13.6-9.2,8.78-15.72s-12.29-4.95-18.68-8.32c-6.39-3.38-13.87-3.6-21.05-4.95-7.18-1.36-15.59-3.33-23.02-3.98s-17.83-1.68-24.99-2.01-18.93-2.43-25.01-1.99-20.94-3.78-23,1c2,10.96,3.24,21.95,5,33,.42,2.65.81,5.1,1,8,.28,4.1-2.76,10.95-8,5-2.51-2.85-2.38-9.49-3-13-2.05-11.68-5.45-25.01-5-37,0,0-.68-.24-1,0-7.12,5.27-20.79-2.42-30,0s-20.37-1.5-30-1-21.02-.24-31,0-20.89-.15-31,0-20.91-.17-31,0-21.1-.29-31,0-18.38-.83-27,0h0Z"/>
      <path class="cls-103" d="M664.29,926.23c.01-4.99.79-14.74-1-20s1.51-15.02-4-17c-.45,11.99,2.95,25.32,5,37Z"/>
      <path class="cls-40" d="M420.29,900.23c-.06.49.11,1.53,0,2-1.56,6.76-3.24,19.6-4.07,25.93-.83,6.32-6.48,22.1,2.06,22.06,8.55-.04,6.63-15.46,8.01-21.99s2.96-19.04,4-26c.15-.97-.08-2.02,0-3-2.73,6.79-5.26,11.5-5.02,19.98.23,8.47-2.99,12.12-3.65,21.35s-7.68,7.65-5.26-1.26c2.42-8.91,1.52-12.22,2.93-20.07s1.32-12.86,1-19h0Z"/>
      <path class="cls-10" d="M667.29,939.23c5.24,5.95,8.28-.9,8-5,.53,1.93-1.05,3.24-1,5-.79-1.31-7.76-2.4-7,0Z"/>
      <path class="cls-38" d="M521.82,164.63c-4.6,7.01-8.03,12.24-13.71,19.23-5.69,6.98-7.76,15.19-11.12,23.25,6.23-6.91,14.56-14.38,22.76-17.22,10.41-3.6,21.56,3.54,31.28,6.62,9.72,3.09,19.52,8.21,28.73,11.74,22.07,8.48,45.66,15.29,67.25,22.96,9.27,3.29,27.89,6.85,36.21,1.15,8.24-5.66,18.88-15.92,20.69-27.55,1.81-11.63-7.5-24.45-15.26-32.43-7.77-7.98-14.78-15.06-24.31-22.39-9.54-7.32-2.9-29-12.93-35.01-10.05-6-27.28.93-38.31,2.84s-25.69,5.32-36.41,8.95c-10.73,3.65-22.4,7.38-31.33,14.61-8.93,7.24-17.19,13.57-23.54,23.25Z"/>
    </g>
  </g>
</svg>